<svg xmlns="http://www.w3.org/2000/svg" xmlns:xlink="http://www.w3.org/1999/xlink" contentStyleType="text/css" data-diagram-type="CLASS" height="336px" preserveAspectRatio="none" style="width:2759px;height:336px;background:#FFFFFF;" version="1.1" viewBox="0 0 2759 336" width="2759px" zoomAndPan="magnify"><defs/><g><!--cluster System--><g class="cluster" data-entity="System" data-source-line="6" data-uid="ent0002" id="cluster_System"><path d="M8.5,6 L67.8174,6 A3.75,3.75 0 0 1 70.3174,8.5 L77.3174,28.2969 L2749.5,28.2969 A2.5,2.5 0 0 1 2752,30.7969 L2752,326.78 A2.5,2.5 0 0 1 2749.5,329.28 L8.5,329.28 A2.5,2.5 0 0 1 6,326.78 L6,8.5 A2.5,2.5 0 0 1 8.5,6" fill="none" style="stroke:#000000;stroke-width:1.5;"/><line style="stroke:#000000;stroke-width:1.5;" x1="6" x2="77.3174" y1="28.2969" y2="28.2969"/><text fill="#000000" font-family="sans-serif" font-size="14" font-weight="bold" lengthAdjust="spacing" textLength="58.3174" x="10" y="20.9951">System</text></g><!--cluster Requirements--><g class="cluster" data-entity="Requirements" data-source-line="7" data-uid="ent0003" id="cluster_Requirements"><path d="M32.5,59.02 L144.0371,59.02 A3.75,3.75 0 0 1 146.5371,61.52 L153.5371,81.3169 L611.5,81.3169 A2.5,2.5 0 0 1 614,83.8169 L614,296.42 A2.5,2.5 0 0 1 611.5,298.92 L32.5,298.92 A2.5,2.5 0 0 1 30,296.42 L30,61.52 A2.5,2.5 0 0 1 32.5,59.02" fill="none" style="stroke:#000000;stroke-width:1.5;"/><line style="stroke:#000000;stroke-width:1.5;" x1="30" x2="153.5371" y1="81.3169" y2="81.3169"/><text fill="#000000" font-family="sans-serif" font-size="14" font-weight="bold" lengthAdjust="spacing" textLength="110.5371" x="34" y="74.0151">Requirements</text></g><!--cluster Use Cases--><g class="cluster" data-entity="Use Cases" data-source-line="27" data-uid="ent0012" id="cluster_Use Cases"><path d="M640.5,49 L721.4531,49 A3.75,3.75 0 0 1 723.9531,51.5 L730.9531,71.2969 L2073.5,71.2969 A2.5,2.5 0 0 1 2076,73.7969 L2076,302.78 A2.5,2.5 0 0 1 2073.5,305.28 L640.5,305.28 A2.5,2.5 0 0 1 638,302.78 L638,51.5 A2.5,2.5 0 0 1 640.5,49" fill="none" style="stroke:#000000;stroke-width:1.5;"/><line style="stroke:#000000;stroke-width:1.5;" x1="638" x2="730.9531" y1="71.2969" y2="71.2969"/><text fill="#000000" font-family="sans-serif" font-size="14" font-weight="bold" lengthAdjust="spacing" textLength="79.9531" x="642" y="63.9951">Use Cases</text></g><!--class BasicSafety--><g class="entity" data-entity="BasicSafety" data-source-line="8" data-uid="ent0004" id="entity_BasicSafety"><rect fill="#F1F1F1" height="56.2656" rx="2.5" ry="2.5" style="stroke:#181818;stroke-width:0.5;" width="117.2559" x="46.37" y="94.02"/><ellipse cx="61.37" cy="114.1528" fill="#ADD1B2" rx="11" ry="11" style="stroke:#181818;stroke-width:1;"/><path d="M64.3388,119.7934 Q63.7606,120.0903 63.12,120.2309 Q62.4794,120.3872 61.7763,120.3872 Q59.2763,120.3872 57.9481,118.7466 Q56.6356,117.0903 56.6356,113.9653 Q56.6356,110.8403 57.9481,109.1841 Q59.2763,107.5278 61.7763,107.5278 Q62.4794,107.5278 63.12,107.6841 Q63.7763,107.8403 64.3388,108.1372 L64.3388,110.8559 Q63.7138,110.2778 63.12,110.0122 Q62.5263,109.7309 61.9013,109.7309 Q60.5575,109.7309 59.87,110.8091 Q59.1825,111.8716 59.1825,113.9653 Q59.1825,116.0591 59.87,117.1372 Q60.5575,118.1997 61.9013,118.1997 Q62.5263,118.1997 63.12,117.9341 Q63.7138,117.6528 64.3388,117.0747 L64.3388,119.7934 Z " fill="#000000"/><text fill="#000000" font-family="sans-serif" font-size="12" font-style="italic" lengthAdjust="spacing" textLength="89.2559" x="73.37" y="110.1587">&#171;requirement&#187;</text><text fill="#000000" font-family="sans-serif" font-size="14" lengthAdjust="spacing" textLength="81.8467" x="77.0746" y="125.9839">BasicSafety</text><line style="stroke:#181818;stroke-width:0.5;" x1="47.37" x2="162.6259" y1="134.2856" y2="134.2856"/><line style="stroke:#181818;stroke-width:0.5;" x1="47.37" x2="162.6259" y1="142.2856" y2="142.2856"/></g><!--class EssentialPerformance--><g class="entity" data-entity="EssentialPerformance" data-source-line="9" data-uid="ent0005" id="entity_EssentialPerformance"><rect fill="#F1F1F1" height="56.2656" rx="2.5" ry="2.5" style="stroke:#181818;stroke-width:0.5;" width="184.2295" x="198.89" y="94.02"/><ellipse cx="213.89" cy="114.1528" fill="#ADD1B2" rx="11" ry="11" style="stroke:#181818;stroke-width:1;"/><path d="M216.8588,119.7934 Q216.2806,120.0903 215.64,120.2309 Q214.9994,120.3872 214.2963,120.3872 Q211.7963,120.3872 210.4681,118.7466 Q209.1556,117.0903 209.1556,113.9653 Q209.1556,110.8403 210.4681,109.1841 Q211.7963,107.5278 214.2963,107.5278 Q214.9994,107.5278 215.64,107.6841 Q216.2963,107.8403 216.8588,108.1372 L216.8588,110.8559 Q216.2338,110.2778 215.64,110.0122 Q215.0463,109.7309 214.4213,109.7309 Q213.0775,109.7309 212.39,110.8091 Q211.7025,111.8716 211.7025,113.9653 Q211.7025,116.0591 212.39,117.1372 Q213.0775,118.1997 214.4213,118.1997 Q215.0463,118.1997 215.64,117.9341 Q216.2338,117.6528 216.8588,117.0747 L216.8588,119.7934 Z " fill="#000000"/><text fill="#000000" font-family="sans-serif" font-size="12" font-style="italic" lengthAdjust="spacing" textLength="89.2559" x="259.3768" y="110.1587">&#171;requirement&#187;</text><text fill="#000000" font-family="sans-serif" font-size="14" lengthAdjust="spacing" textLength="152.2295" x="227.89" y="125.9839">EssentialPerformance</text><line style="stroke:#181818;stroke-width:0.5;" x1="199.89" x2="382.1195" y1="134.2856" y2="134.2856"/><line style="stroke:#181818;stroke-width:0.5;" x1="199.89" x2="382.1195" y1="142.2856" y2="142.2856"/></g><!--class LeakageCurrentLimit--><g class="entity" data-entity="LeakageCurrentLimit" data-source-line="10" data-uid="ent0006" id="entity_LeakageCurrentLimit"><rect fill="#F1F1F1" height="56.2656" rx="2.5" ry="2.5" style="stroke:#181818;stroke-width:0.5;" width="179.0205" x="418.49" y="94.02"/><ellipse cx="433.49" cy="114.1528" fill="#ADD1B2" rx="11" ry="11" style="stroke:#181818;stroke-width:1;"/><path d="M436.4588,119.7934 Q435.8806,120.0903 435.24,120.2309 Q434.5994,120.3872 433.8963,120.3872 Q431.3963,120.3872 430.0681,118.7466 Q428.7556,117.0903 428.7556,113.9653 Q428.7556,110.8403 430.0681,109.1841 Q431.3963,107.5278 433.8963,107.5278 Q434.5994,107.5278 435.24,107.6841 Q435.8963,107.8403 436.4588,108.1372 L436.4588,110.8559 Q435.8338,110.2778 435.24,110.0122 Q434.6463,109.7309 434.0213,109.7309 Q432.6775,109.7309 431.99,110.8091 Q431.3025,111.8716 431.3025,113.9653 Q431.3025,116.0591 431.99,117.1372 Q432.6775,118.1997 434.0213,118.1997 Q434.6463,118.1997 435.24,117.9341 Q435.8338,117.6528 436.4588,117.0747 L436.4588,119.7934 Z " fill="#000000"/><text fill="#000000" font-family="sans-serif" font-size="12" font-style="italic" lengthAdjust="spacing" textLength="89.2559" x="476.3723" y="110.1587">&#171;requirement&#187;</text><text fill="#000000" font-family="sans-serif" font-size="14" lengthAdjust="spacing" textLength="147.0205" x="447.49" y="125.9839">LeakageCurrentLimit</text><line style="stroke:#181818;stroke-width:0.5;" x1="419.49" x2="596.5105" y1="134.2856" y2="134.2856"/><line style="stroke:#181818;stroke-width:0.5;" x1="419.49" x2="596.5105" y1="142.2856" y2="142.2856"/></g><!--class ControlRisk1--><g class="entity" data-entity="ControlRisk1" data-source-line="11" data-uid="ent0007" id="entity_ControlRisk1"><rect fill="#F1F1F1" height="56.2656" rx="2.5" ry="2.5" style="stroke:#181818;stroke-width:0.5;" width="120.8398" x="45.58" y="226.66"/><ellipse cx="60.58" cy="246.7928" fill="#ADD1B2" rx="11" ry="11" style="stroke:#181818;stroke-width:1;"/><path d="M63.5488,252.4334 Q62.9706,252.7303 62.33,252.8709 Q61.6894,253.0272 60.9863,253.0272 Q58.4863,253.0272 57.1581,251.3866 Q55.8456,249.7303 55.8456,246.6053 Q55.8456,243.4803 57.1581,241.8241 Q58.4863,240.1678 60.9863,240.1678 Q61.6894,240.1678 62.33,240.3241 Q62.9863,240.4803 63.5488,240.7772 L63.5488,243.4959 Q62.9238,242.9178 62.33,242.6522 Q61.7363,242.3709 61.1113,242.3709 Q59.7675,242.3709 59.08,243.4491 Q58.3925,244.5116 58.3925,246.6053 Q58.3925,248.6991 59.08,249.7772 Q59.7675,250.8397 61.1113,250.8397 Q61.7363,250.8397 62.33,250.5741 Q62.9238,250.2928 63.5488,249.7147 L63.5488,252.4334 Z " fill="#000000"/><text fill="#000000" font-family="sans-serif" font-size="12" font-style="italic" lengthAdjust="spacing" textLength="89.2559" x="74.372" y="242.7987">&#171;requirement&#187;</text><text fill="#000000" font-family="sans-serif" font-size="14" lengthAdjust="spacing" textLength="88.8398" x="74.58" y="258.6239">ControlRisk1</text><line style="stroke:#181818;stroke-width:0.5;" x1="46.58" x2="165.4198" y1="266.9256" y2="266.9256"/><line style="stroke:#181818;stroke-width:0.5;" x1="46.58" x2="165.4198" y1="274.9256" y2="274.9256"/></g><!--class ControlRisk2--><g class="entity" data-entity="ControlRisk2" data-source-line="12" data-uid="ent0008" id="entity_ControlRisk2"><rect fill="#F1F1F1" height="56.2656" rx="2.5" ry="2.5" style="stroke:#181818;stroke-width:0.5;" width="120.8398" x="201.58" y="226.66"/><ellipse cx="216.58" cy="246.7928" fill="#ADD1B2" rx="11" ry="11" style="stroke:#181818;stroke-width:1;"/><path d="M219.5488,252.4334 Q218.9706,252.7303 218.33,252.8709 Q217.6894,253.0272 216.9863,253.0272 Q214.4863,253.0272 213.1581,251.3866 Q211.8456,249.7303 211.8456,246.6053 Q211.8456,243.4803 213.1581,241.8241 Q214.4863,240.1678 216.9863,240.1678 Q217.6894,240.1678 218.33,240.3241 Q218.9863,240.4803 219.5488,240.7772 L219.5488,243.4959 Q218.9238,242.9178 218.33,242.6522 Q217.7363,242.3709 217.1113,242.3709 Q215.7675,242.3709 215.08,243.4491 Q214.3925,244.5116 214.3925,246.6053 Q214.3925,248.6991 215.08,249.7772 Q215.7675,250.8397 217.1113,250.8397 Q217.7363,250.8397 218.33,250.5741 Q218.9238,250.2928 219.5488,249.7147 L219.5488,252.4334 Z " fill="#000000"/><text fill="#000000" font-family="sans-serif" font-size="12" font-style="italic" lengthAdjust="spacing" textLength="89.2559" x="230.372" y="242.7987">&#171;requirement&#187;</text><text fill="#000000" font-family="sans-serif" font-size="14" lengthAdjust="spacing" textLength="88.8398" x="230.58" y="258.6239">ControlRisk2</text><line style="stroke:#181818;stroke-width:0.5;" x1="202.58" x2="321.4198" y1="266.9256" y2="266.9256"/><line style="stroke:#181818;stroke-width:0.5;" x1="202.58" x2="321.4198" y1="274.9256" y2="274.9256"/></g><path d="M2094.94,95.85 L2255.067,95.85 A3.75,3.75 0 0 1 2257.567,98.35 L2264.567,118.1469 L2269.067,118.1469 A2.5,2.5 0 0 1 2271.567,120.6469 L2271.567,145.9437 A2.5,2.5 0 0 1 2269.067,148.4437 L2094.94,148.4437 A2.5,2.5 0 0 1 2092.44,145.9437 L2092.44,98.35 A2.5,2.5 0 0 1 2094.94,95.85" fill="#F1F1F1" style="stroke:#181818;stroke-width:0.5;"/><line style="stroke:#181818;stroke-width:0.5;" x1="2092.44" x2="2264.567" y1="118.1469" y2="118.1469"/><text fill="#000000" font-family="sans-serif" font-size="14" font-weight="bold" lengthAdjust="spacing" textLength="159.127" x="2096.44" y="110.8451">Logical Architecture</text><path d="M2309.33,95.85 L2496.6708,95.85 A3.75,3.75 0 0 1 2499.1708,98.35 L2506.1708,118.1469 L2510.6708,118.1469 A2.5,2.5 0 0 1 2513.1708,120.6469 L2513.1708,145.9437 A2.5,2.5 0 0 1 2510.6708,148.4437 L2309.33,148.4437 A2.5,2.5 0 0 1 2306.83,145.9437 L2306.83,98.35 A2.5,2.5 0 0 1 2309.33,95.85" fill="#F1F1F1" style="stroke:#181818;stroke-width:0.5;"/><line style="stroke:#181818;stroke-width:0.5;" x1="2306.83" x2="2506.1708" y1="118.1469" y2="118.1469"/><text fill="#000000" font-family="sans-serif" font-size="14" font-weight="bold" lengthAdjust="spacing" textLength="186.3408" x="2310.83" y="110.8451">Functional Architecture</text><path d="M2550.37,95.85 L2719.6229,95.85 A3.75,3.75 0 0 1 2722.1229,98.35 L2729.1229,118.1469 L2733.6229,118.1469 A2.5,2.5 0 0 1 2736.1229,120.6469 L2736.1229,145.9437 A2.5,2.5 0 0 1 2733.6229,148.4437 L2550.37,148.4437 A2.5,2.5 0 0 1 2547.87,145.9437 L2547.87,98.35 A2.5,2.5 0 0 1 2550.37,95.85" fill="#F1F1F1" style="stroke:#181818;stroke-width:0.5;"/><line style="stroke:#181818;stroke-width:0.5;" x1="2547.87" x2="2729.1229" y1="118.1469" y2="118.1469"/><text fill="#000000" font-family="sans-serif" font-size="14" font-weight="bold" lengthAdjust="spacing" textLength="168.2529" x="2551.87" y="110.8451">Physical Architecture</text><!--entity HealthcareProfessionals--><g class="entity" data-entity="HealthcareProfessionals" data-source-line="29" data-uid="ent0013" id="entity_HealthcareProfessionals"><ellipse cx="1528.0008" cy="92.5" fill="#F1F1F1" rx="8" ry="8" style="stroke:#181818;stroke-width:0.5;"/><path d="M1528.0008,100.5 L1528.0008,127.5 M1515.0008,108.5 L1541.0008,108.5 M1528.0008,127.5 L1515.0008,142.5 M1528.0008,127.5 L1541.0008,142.5" fill="none" style="stroke:#181818;stroke-width:0.5;"/><text fill="#000000" font-family="sans-serif" font-size="14" lengthAdjust="spacing" textLength="168.6016" x="1443.7" y="156.9951">HealthcareProfessionals</text></g><!--entity Technician--><g class="entity" data-entity="Technician" data-source-line="30" data-uid="ent0014" id="entity_Technician"><ellipse cx="1827.9986" cy="92.5" fill="#F1F1F1" rx="8" ry="8" style="stroke:#181818;stroke-width:0.5;"/><path d="M1827.9986,100.5 L1827.9986,127.5 M1814.9986,108.5 L1840.9986,108.5 M1827.9986,127.5 L1814.9986,142.5 M1827.9986,127.5 L1840.9986,142.5" fill="none" style="stroke:#181818;stroke-width:0.5;"/><text fill="#000000" font-family="sans-serif" font-size="14" lengthAdjust="spacing" textLength="75.5371" x="1790.23" y="156.9951">Technician</text></g><!--entity Patient--><g class="entity" data-entity="Patient" data-source-line="31" data-uid="ent0015" id="entity_Patient"><ellipse cx="1924.998" cy="92.5" fill="#F1F1F1" rx="8" ry="8" style="stroke:#181818;stroke-width:0.5;"/><path d="M1924.998,100.5 L1924.998,127.5 M1911.998,108.5 L1937.998,108.5 M1924.998,127.5 L1911.998,142.5 M1924.998,127.5 L1937.998,142.5" fill="none" style="stroke:#181818;stroke-width:0.5;"/><text fill="#000000" font-family="sans-serif" font-size="14" lengthAdjust="spacing" textLength="49.376" x="1900.31" y="156.9951">Patient</text></g><!--entity LayPerson--><g class="entity" data-entity="LayPerson" data-source-line="32" data-uid="ent0016" id="entity_LayPerson"><ellipse cx="2021.004" cy="92.5" fill="#F1F1F1" rx="8" ry="8" style="stroke:#181818;stroke-width:0.5;"/><path d="M2021.004,100.5 L2021.004,127.5 M2008.004,108.5 L2034.004,108.5 M2021.004,127.5 L2008.004,142.5 M2021.004,127.5 L2034.004,142.5" fill="none" style="stroke:#181818;stroke-width:0.5;"/><text fill="#000000" font-family="sans-serif" font-size="14" lengthAdjust="spacing" textLength="72.208" x="1984.9" y="156.9951">LayPerson</text></g><!--entity UC1--><g class="entity" data-entity="UC1" data-source-line="34" data-uid="ent0017" id="entity_UC1"><ellipse cx="1844.0049" cy="254.793" fill="#F1F1F1" rx="64.9149" ry="15.383" style="stroke:#181818;stroke-width:0.5;"/><text fill="#000000" font-family="sans-serif" font-size="14" lengthAdjust="spacing" textLength="93.2422" x="1797.3838" y="259.4414">Run Self-Test</text></g><!--entity UC2--><g class="entity" data-entity="UC2" data-source-line="35" data-uid="ent0018" id="entity_UC2"><ellipse cx="2001.9986" cy="254.7936" fill="#F1F1F1" rx="57.6986" ry="14.5236" style="stroke:#181818;stroke-width:0.5;"/><text fill="#000000" font-family="sans-serif" font-size="14" lengthAdjust="spacing" textLength="77.3555" x="1963.3208" y="259.4421">Log Failure</text></g><!--entity UC3--><g class="entity" data-entity="UC3" data-source-line="36" data-uid="ent0019" id="entity_UC3"><ellipse cx="809.9979" cy="254.7896" fill="#F1F1F1" rx="155.8479" ry="33.5696" style="stroke:#181818;stroke-width:0.5;"/><text fill="#000000" font-family="sans-serif" font-size="14" lengthAdjust="spacing" textLength="294.6357" x="662.68" y="259.438">Primary operating function: Display Alarm</text></g><!--entity UC4--><g class="entity" data-entity="UC4" data-source-line="37" data-uid="ent0020" id="entity_UC4"><ellipse cx="1160.9952" cy="254.791" fill="#F1F1F1" rx="160.4552" ry="34.491" style="stroke:#181818;stroke-width:0.5;"/><text fill="#000000" font-family="sans-serif" font-size="14" lengthAdjust="spacing" textLength="304.1855" x="1008.9024" y="259.4395">Primary operating function: Monitor Patient</text></g><!--entity UC5--><g class="entity" data-entity="UC5" data-source-line="38" data-uid="ent0021" id="entity_UC5"><ellipse cx="1422.9999" cy="254.788" fill="#F1F1F1" rx="66.3399" ry="15.668" style="stroke:#181818;stroke-width:0.5;"/><text fill="#000000" font-family="sans-serif" font-size="14" lengthAdjust="spacing" textLength="96.9951" x="1374.5023" y="259.4364">Abnormal use</text></g><!--entity UC6--><g class="entity" data-entity="UC6" data-source-line="39" data-uid="ent0022" id="entity_UC6"><ellipse cx="1633.9964" cy="254.7853" fill="#F1F1F1" rx="109.8264" ry="24.3653" style="stroke:#181818;stroke-width:0.5;"/><text fill="#000000" font-family="sans-serif" font-size="14" lengthAdjust="spacing" textLength="197.5039" x="1535.2444" y="259.4337">Hazard-related use scenario</text></g><!--link HealthcareProfessionals to UC1--><g class="link" data-entity-1="HealthcareProfessionals" data-entity-2="UC1" data-source-line="41" data-uid="lnk23" id="link_HealthcareProfessionals_UC1"><path codeLine="41" d="M1612.68,158.16 C1678.68,185.44 1761.0653,219.4973 1807.1853,238.5673" fill="none" id="HealthcareProfessionals-to-UC1" style="stroke:#181818;stroke-width:1;"/><polygon fill="#181818" points="1812.73,240.86,1805.9414,233.7245,1808.1094,238.9495,1802.8845,241.1175,1812.73,240.86" style="stroke:#181818;stroke-width:1;"/></g><!--link Technician to UC1--><g class="link" data-entity-1="Technician" data-entity-2="UC1" data-source-line="42" data-uid="lnk24" id="link_Technician_UC1"><path codeLine="42" d="M1832.58,160.59 C1835.78,186.67 1839.1394,214.1147 1841.4594,233.0247" fill="none" id="Technician-to-UC1" style="stroke:#181818;stroke-width:1;"/><polygon fill="#181818" points="1842.19,238.98,1845.0643,229.5599,1841.5811,234.0172,1837.1238,230.5341,1842.19,238.98" style="stroke:#181818;stroke-width:1;"/></g><!--link HealthcareProfessionals to UC2--><g class="link" data-entity-1="HealthcareProfessionals" data-entity-2="UC2" data-source-line="43" data-uid="lnk25" id="link_HealthcareProfessionals_UC2"><path codeLine="43" d="M1612.7,139.32 C1694.12,155.91 1820.09,184.35 1926,220.3 C1943.34,226.18 1956.7509,231.9156 1971.3309,238.7756" fill="none" id="HealthcareProfessionals-to-UC2" style="stroke:#181818;stroke-width:1;"/><polygon fill="#181818" points="1976.76,241.33,1970.3193,233.879,1972.2358,239.2013,1966.9134,241.1178,1976.76,241.33" style="stroke:#181818;stroke-width:1;"/></g><!--link Technician to UC2--><g class="link" data-entity-1="Technician" data-entity-2="UC2" data-source-line="44" data-uid="lnk26" id="link_Technician_UC2"><path codeLine="44" d="M1866.19,151.82 C1903,179.46 1952.2627,216.4364 1979.7527,237.0864" fill="none" id="Technician-to-UC2" style="stroke:#181818;stroke-width:1;"/><polygon fill="#181818" points="1984.55,240.69,1979.7565,232.0864,1980.5523,237.687,1974.9517,238.4827,1984.55,240.69" style="stroke:#181818;stroke-width:1;"/></g><!--link HealthcareProfessionals to UC3--><g class="link" data-entity-1="HealthcareProfessionals" data-entity-2="UC3" data-source-line="45" data-uid="lnk27" id="link_HealthcareProfessionals_UC3"><path codeLine="45" d="M1443.44,137.82 C1336.23,156.52 1145.76,190.04 983,220.3 C963.9,223.85 949.5223,226.5682 929.8423,230.3482" fill="none" id="HealthcareProfessionals-to-UC3" style="stroke:#181818;stroke-width:1;"/><polygon fill="#181818" points="923.95,231.48,933.5429,233.7106,928.8602,230.5369,932.0339,225.8542,923.95,231.48" style="stroke:#181818;stroke-width:1;"/></g><!--link HealthcareProfessionals to UC4--><g class="link" data-entity-1="HealthcareProfessionals" data-entity-2="UC4" data-source-line="46" data-uid="lnk28" id="link_HealthcareProfessionals_UC4"><path codeLine="46" d="M1443.34,153.28 C1383.01,174.76 1308.0127,201.4582 1248.3627,222.6882" fill="none" id="HealthcareProfessionals-to-UC4" style="stroke:#181818;stroke-width:1;"/><polygon fill="#181818" points="1242.71,224.7,1252.5302,225.4507,1247.4205,223.0235,1249.8478,217.9138,1242.71,224.7" style="stroke:#181818;stroke-width:1;"/></g><!--link HealthcareProfessionals to UC5--><g class="link" data-entity-1="HealthcareProfessionals" data-entity-2="UC5" data-source-line="47" data-uid="lnk29" id="link_HealthcareProfessionals_UC5"><path codeLine="47" d="M1497.91,160.59 C1476.94,186.67 1453.8575,215.3923 1438.6675,234.3023" fill="none" id="HealthcareProfessionals-to-UC5" style="stroke:#181818;stroke-width:1;"/><polygon fill="#181818" points="1434.91,238.98,1443.6648,234.4684,1438.0413,235.0819,1437.4278,229.4584,1434.91,238.98" style="stroke:#181818;stroke-width:1;"/></g><!--link HealthcareProfessionals to UC6--><g class="link" data-entity-1="HealthcareProfessionals" data-entity-2="UC6" data-source-line="48" data-uid="lnk30" id="link_HealthcareProfessionals_UC6"><path codeLine="48" d="M1558.38,160.59 C1576.61,183.05 1595.45,206.2805 1611.18,225.6705" fill="none" id="HealthcareProfessionals-to-UC6" style="stroke:#181818;stroke-width:1;"/><polygon fill="#181818" points="1614.96,230.33,1612.3963,220.8207,1611.81,226.447,1606.1836,225.8607,1614.96,230.33" style="stroke:#181818;stroke-width:1;"/></g><!--SRC=[ZP91Rzf048Nl_XKZBfm80X8EKOH4tQ14SbGBmhcQBcCyodhNtLcNkbN-UzV41LSjTGu-xBplUNVUp32sHScQuC0-XrAZyTkd13uPpOPWG-uRESYzB-LsF3uS3bT7f2hqbRB5-FTX7Bu8jRQ7pmL_PxEFek4wMQLHLA9wmJt1O5EBfs80Fy-bDNsjs551naiZ02YD8l01XTK6C_8rtDsvCxLOd9XxaL1Wr2cvpBe2ZQABS4BOt1XNpWKXuOBzHJQsnZkhromla_T0qx-WrqxNYTspGWrBftBsf7pbg6dr3sXL6UNPcZukpMlf_zjM268KEaOwV3IUp8vsK4aOPEbi5eOjK8R3utqCy-biFXzDGcEel7NmGAXzhj1H6b0IEJvBJlepgTomOZIdKegUG-EdSu9rc8bO4uLIk5M5juHPLoPiayv6poH-02YmZITT82G5AsHzREaeJxjowhX0LuCDBmyNcZraRMgty94bB68DIuskQCspzvgVhE5E6wtzkcjVVZ7DXkccqketNVq1Vw3RZHnfz6z9WoWowDYs-Bp9uaAsC1ejsZ3EwNQA_xTD_sMRzjfclSHrBt7JIyoRnNpz1G00]--></g></svg>