<svg xmlns="http://www.w3.org/2000/svg" xmlns:xlink="http://www.w3.org/1999/xlink" contentStyleType="text/css" data-diagram-type="CLASS" height="468px" preserveAspectRatio="none" style="width:2881px;height:468px;background:#FFFFFF;" version="1.1" viewBox="0 0 2881 468" width="2881px" zoomAndPan="magnify"><defs/><g><!--cluster System--><g class="cluster" data-entity="System" data-source-line="6" data-uid="ent0002" id="cluster_System"><path d="M8.5,6 L67.8174,6 A3.75,3.75 0 0 1 70.3174,8.5 L77.3174,28.2969 L2871.5,28.2969 A2.5,2.5 0 0 1 2874,30.7969 L2874,458.95 A2.5,2.5 0 0 1 2871.5,461.45 L8.5,461.45 A2.5,2.5 0 0 1 6,458.95 L6,8.5 A2.5,2.5 0 0 1 8.5,6" fill="none" style="stroke:#000000;stroke-width:1.5;"/><line style="stroke:#000000;stroke-width:1.5;" x1="6" x2="77.3174" y1="28.2969" y2="28.2969"/><text fill="#000000" font-family="sans-serif" font-size="14" font-weight="bold" lengthAdjust="spacing" textLength="58.3174" x="10" y="20.9951">System</text></g><!--cluster Requirements--><g class="cluster" data-entity="Requirements" data-source-line="7" data-uid="ent0003" id="cluster_Requirements"><path d="M32.5,77.46 L144.0371,77.46 A3.75,3.75 0 0 1 146.5371,79.96 L153.5371,99.7569 L611.5,99.7569 A2.5,2.5 0 0 1 614,102.2569 L614,326.95 A2.5,2.5 0 0 1 611.5,329.45 L32.5,329.45 A2.5,2.5 0 0 1 30,326.95 L30,79.96 A2.5,2.5 0 0 1 32.5,77.46" fill="none" style="stroke:#000000;stroke-width:1.5;"/><line style="stroke:#000000;stroke-width:1.5;" x1="30" x2="153.5371" y1="99.7569" y2="99.7569"/><text fill="#000000" font-family="sans-serif" font-size="14" font-weight="bold" lengthAdjust="spacing" textLength="110.5371" x="34" y="92.4551">Requirements</text></g><!--cluster Logical Architecture--><g class="cluster" data-entity="Logical Architecture" data-source-line="15" data-uid="ent0009" id="cluster_Logical Architecture"><path d="M640.5,49 L800.627,49 A3.75,3.75 0 0 1 803.127,51.5 L810.127,71.2969 L1244.5,71.2969 A2.5,2.5 0 0 1 1247,73.7969 L1247,434.95 A2.5,2.5 0 0 1 1244.5,437.45 L640.5,437.45 A2.5,2.5 0 0 1 638,434.95 L638,51.5 A2.5,2.5 0 0 1 640.5,49" fill="none" style="stroke:#000000;stroke-width:1.5;"/><line style="stroke:#000000;stroke-width:1.5;" x1="638" x2="810.127" y1="71.2969" y2="71.2969"/><text fill="#000000" font-family="sans-serif" font-size="14" font-weight="bold" lengthAdjust="spacing" textLength="159.127" x="642" y="63.9951">Logical Architecture</text></g><!--cluster Use Cases--><g class="cluster" data-entity="Use Cases" data-source-line="42" data-uid="ent0020" id="cluster_Use Cases"><path d="M1273.5,67.44 L1354.4531,67.44 A3.75,3.75 0 0 1 1356.9531,69.94 L1363.9531,89.7369 L2410.5,89.7369 A2.5,2.5 0 0 1 2413,92.2369 L2413,339.27 A2.5,2.5 0 0 1 2410.5,341.77 L1273.5,341.77 A2.5,2.5 0 0 1 1271,339.27 L1271,69.94 A2.5,2.5 0 0 1 1273.5,67.44" fill="none" style="stroke:#000000;stroke-width:1.5;"/><line style="stroke:#000000;stroke-width:1.5;" x1="1271" x2="1363.9531" y1="89.7369" y2="89.7369"/><text fill="#000000" font-family="sans-serif" font-size="14" font-weight="bold" lengthAdjust="spacing" textLength="79.9531" x="1275" y="82.4351">Use Cases</text></g><!--cluster Primary operating functions--><g class="cluster" data-entity="Primary operating functions" data-source-line="56" data-uid="ent0031" id="cluster_Primary operating functions"><path d="M1758.5,233.86 L1981.9756,233.86 A3.75,3.75 0 0 1 1984.4756,236.36 L1991.4756,256.1569 L2094.5,256.1569 A2.5,2.5 0 0 1 2097,258.6569 L2097,315.27 A2.5,2.5 0 0 1 2094.5,317.77 L1758.5,317.77 A2.5,2.5 0 0 1 1756,315.27 L1756,236.36 A2.5,2.5 0 0 1 1758.5,233.86" fill="none" style="stroke:#000000;stroke-width:1.5;"/><line style="stroke:#000000;stroke-width:1.5;" x1="1756" x2="1991.4756" y1="256.1569" y2="256.1569"/><text fill="#000000" font-family="sans-serif" font-size="14" font-weight="bold" lengthAdjust="spacing" textLength="222.4756" x="1760" y="248.8551">Primary operating functions</text></g><!--cluster Abnormal use--><g class="cluster" data-entity="Abnormal use" data-source-line="63" data-uid="ent0036" id="cluster_Abnormal use"><path d="M1297.5,234.47 L1407.3486,234.47 A3.75,3.75 0 0 1 1409.8486,236.97 L1416.8486,256.7669 L1458.5,256.7669 A2.5,2.5 0 0 1 1461,259.2669 L1461,314.66 A2.5,2.5 0 0 1 1458.5,317.16 L1297.5,317.16 A2.5,2.5 0 0 1 1295,314.66 L1295,236.97 A2.5,2.5 0 0 1 1297.5,234.47" fill="none" style="stroke:#000000;stroke-width:1.5;"/><line style="stroke:#000000;stroke-width:1.5;" x1="1295" x2="1416.8486" y1="256.7669" y2="256.7669"/><text fill="#000000" font-family="sans-serif" font-size="14" font-weight="bold" lengthAdjust="spacing" textLength="108.8486" x="1299" y="249.4651">Abnormal use</text></g><!--cluster Hazard-related use scenarios--><g class="cluster" data-entity="Hazard-related use scenarios" data-source-line="67" data-uid="ent0039" id="cluster_Hazard-related use scenarios"><path d="M1487.5,234.46 L1719.5889,234.46 A3.75,3.75 0 0 1 1722.0889,236.96 L1729.0889,256.7569 L1729.5,256.7569 A2.5,2.5 0 0 1 1732,259.2569 L1732,314.68 A2.5,2.5 0 0 1 1729.5,317.18 L1487.5,317.18 A2.5,2.5 0 0 1 1485,314.68 L1485,236.96 A2.5,2.5 0 0 1 1487.5,234.46" fill="none" style="stroke:#000000;stroke-width:1.5;"/><line style="stroke:#000000;stroke-width:1.5;" x1="1485" x2="1729.0889" y1="256.7569" y2="256.7569"/><text fill="#000000" font-family="sans-serif" font-size="14" font-weight="bold" lengthAdjust="spacing" textLength="231.0889" x="1489" y="249.4551">Hazard-related use scenarios</text></g><!--class BasicSafety--><g class="entity" data-entity="BasicSafety" data-source-line="8" data-uid="ent0004" id="entity_BasicSafety"><rect fill="#F1F1F1" height="56.2656" rx="2.5" ry="2.5" style="stroke:#181818;stroke-width:0.5;" width="117.2559" x="46.37" y="112.46"/><ellipse cx="61.37" cy="132.5928" fill="#ADD1B2" rx="11" ry="11" style="stroke:#181818;stroke-width:1;"/><path d="M64.3388,138.2334 Q63.7606,138.5303 63.12,138.6709 Q62.4794,138.8272 61.7763,138.8272 Q59.2763,138.8272 57.9481,137.1866 Q56.6356,135.5303 56.6356,132.4053 Q56.6356,129.2803 57.9481,127.6241 Q59.2763,125.9678 61.7763,125.9678 Q62.4794,125.9678 63.12,126.1241 Q63.7763,126.2803 64.3388,126.5772 L64.3388,129.2959 Q63.7138,128.7178 63.12,128.4522 Q62.5263,128.1709 61.9013,128.1709 Q60.5575,128.1709 59.87,129.2491 Q59.1825,130.3116 59.1825,132.4053 Q59.1825,134.4991 59.87,135.5772 Q60.5575,136.6397 61.9013,136.6397 Q62.5263,136.6397 63.12,136.3741 Q63.7138,136.0928 64.3388,135.5147 L64.3388,138.2334 Z " fill="#000000"/><text fill="#000000" font-family="sans-serif" font-size="12" font-style="italic" lengthAdjust="spacing" textLength="89.2559" x="73.37" y="128.5987">&#171;requirement&#187;</text><text fill="#000000" font-family="sans-serif" font-size="14" lengthAdjust="spacing" textLength="81.8467" x="77.0746" y="144.4239">BasicSafety</text><line style="stroke:#181818;stroke-width:0.5;" x1="47.37" x2="162.6259" y1="152.7256" y2="152.7256"/><line style="stroke:#181818;stroke-width:0.5;" x1="47.37" x2="162.6259" y1="160.7256" y2="160.7256"/></g><!--class EssentialPerformance--><g class="entity" data-entity="EssentialPerformance" data-source-line="9" data-uid="ent0005" id="entity_EssentialPerformance"><rect fill="#F1F1F1" height="56.2656" rx="2.5" ry="2.5" style="stroke:#181818;stroke-width:0.5;" width="184.2295" x="198.89" y="112.46"/><ellipse cx="213.89" cy="132.5928" fill="#ADD1B2" rx="11" ry="11" style="stroke:#181818;stroke-width:1;"/><path d="M216.8588,138.2334 Q216.2806,138.5303 215.64,138.6709 Q214.9994,138.8272 214.2963,138.8272 Q211.7963,138.8272 210.4681,137.1866 Q209.1556,135.5303 209.1556,132.4053 Q209.1556,129.2803 210.4681,127.6241 Q211.7963,125.9678 214.2963,125.9678 Q214.9994,125.9678 215.64,126.1241 Q216.2963,126.2803 216.8588,126.5772 L216.8588,129.2959 Q216.2338,128.7178 215.64,128.4522 Q215.0463,128.1709 214.4213,128.1709 Q213.0775,128.1709 212.39,129.2491 Q211.7025,130.3116 211.7025,132.4053 Q211.7025,134.4991 212.39,135.5772 Q213.0775,136.6397 214.4213,136.6397 Q215.0463,136.6397 215.64,136.3741 Q216.2338,136.0928 216.8588,135.5147 L216.8588,138.2334 Z " fill="#000000"/><text fill="#000000" font-family="sans-serif" font-size="12" font-style="italic" lengthAdjust="spacing" textLength="89.2559" x="259.3768" y="128.5987">&#171;requirement&#187;</text><text fill="#000000" font-family="sans-serif" font-size="14" lengthAdjust="spacing" textLength="152.2295" x="227.89" y="144.4239">EssentialPerformance</text><line style="stroke:#181818;stroke-width:0.5;" x1="199.89" x2="382.1195" y1="152.7256" y2="152.7256"/><line style="stroke:#181818;stroke-width:0.5;" x1="199.89" x2="382.1195" y1="160.7256" y2="160.7256"/></g><!--class LeakageCurrentLimit--><g class="entity" data-entity="LeakageCurrentLimit" data-source-line="10" data-uid="ent0006" id="entity_LeakageCurrentLimit"><rect fill="#F1F1F1" height="56.2656" rx="2.5" ry="2.5" style="stroke:#181818;stroke-width:0.5;" width="179.0205" x="418.49" y="112.46"/><ellipse cx="433.49" cy="132.5928" fill="#ADD1B2" rx="11" ry="11" style="stroke:#181818;stroke-width:1;"/><path d="M436.4588,138.2334 Q435.8806,138.5303 435.24,138.6709 Q434.5994,138.8272 433.8963,138.8272 Q431.3963,138.8272 430.0681,137.1866 Q428.7556,135.5303 428.7556,132.4053 Q428.7556,129.2803 430.0681,127.6241 Q431.3963,125.9678 433.8963,125.9678 Q434.5994,125.9678 435.24,126.1241 Q435.8963,126.2803 436.4588,126.5772 L436.4588,129.2959 Q435.8338,128.7178 435.24,128.4522 Q434.6463,128.1709 434.0213,128.1709 Q432.6775,128.1709 431.99,129.2491 Q431.3025,130.3116 431.3025,132.4053 Q431.3025,134.4991 431.99,135.5772 Q432.6775,136.6397 434.0213,136.6397 Q434.6463,136.6397 435.24,136.3741 Q435.8338,136.0928 436.4588,135.5147 L436.4588,138.2334 Z " fill="#000000"/><text fill="#000000" font-family="sans-serif" font-size="12" font-style="italic" lengthAdjust="spacing" textLength="89.2559" x="476.3723" y="128.5987">&#171;requirement&#187;</text><text fill="#000000" font-family="sans-serif" font-size="14" lengthAdjust="spacing" textLength="147.0205" x="447.49" y="144.4239">LeakageCurrentLimit</text><line style="stroke:#181818;stroke-width:0.5;" x1="419.49" x2="596.5105" y1="152.7256" y2="152.7256"/><line style="stroke:#181818;stroke-width:0.5;" x1="419.49" x2="596.5105" y1="160.7256" y2="160.7256"/></g><!--class ControlRisk1--><g class="entity" data-entity="ControlRisk1" data-source-line="11" data-uid="ent0007" id="entity_ControlRisk1"><rect fill="#F1F1F1" height="56.2656" rx="2.5" ry="2.5" style="stroke:#181818;stroke-width:0.5;" width="120.8398" x="45.58" y="257.18"/><ellipse cx="60.58" cy="277.3128" fill="#ADD1B2" rx="11" ry="11" style="stroke:#181818;stroke-width:1;"/><path d="M63.5488,282.9534 Q62.9706,283.2503 62.33,283.3909 Q61.6894,283.5472 60.9863,283.5472 Q58.4863,283.5472 57.1581,281.9066 Q55.8456,280.2503 55.8456,277.1253 Q55.8456,274.0003 57.1581,272.3441 Q58.4863,270.6878 60.9863,270.6878 Q61.6894,270.6878 62.33,270.8441 Q62.9863,271.0003 63.5488,271.2972 L63.5488,274.0159 Q62.9238,273.4378 62.33,273.1722 Q61.7363,272.8909 61.1113,272.8909 Q59.7675,272.8909 59.08,273.9691 Q58.3925,275.0316 58.3925,277.1253 Q58.3925,279.2191 59.08,280.2972 Q59.7675,281.3597 61.1113,281.3597 Q61.7363,281.3597 62.33,281.0941 Q62.9238,280.8128 63.5488,280.2347 L63.5488,282.9534 Z " fill="#000000"/><text fill="#000000" font-family="sans-serif" font-size="12" font-style="italic" lengthAdjust="spacing" textLength="89.2559" x="74.372" y="273.3187">&#171;requirement&#187;</text><text fill="#000000" font-family="sans-serif" font-size="14" lengthAdjust="spacing" textLength="88.8398" x="74.58" y="289.1439">ControlRisk1</text><line style="stroke:#181818;stroke-width:0.5;" x1="46.58" x2="165.4198" y1="297.4456" y2="297.4456"/><line style="stroke:#181818;stroke-width:0.5;" x1="46.58" x2="165.4198" y1="305.4456" y2="305.4456"/></g><!--class ControlRisk2--><g class="entity" data-entity="ControlRisk2" data-source-line="12" data-uid="ent0008" id="entity_ControlRisk2"><rect fill="#F1F1F1" height="56.2656" rx="2.5" ry="2.5" style="stroke:#181818;stroke-width:0.5;" width="120.8398" x="201.58" y="257.18"/><ellipse cx="216.58" cy="277.3128" fill="#ADD1B2" rx="11" ry="11" style="stroke:#181818;stroke-width:1;"/><path d="M219.5488,282.9534 Q218.9706,283.2503 218.33,283.3909 Q217.6894,283.5472 216.9863,283.5472 Q214.4863,283.5472 213.1581,281.9066 Q211.8456,280.2503 211.8456,277.1253 Q211.8456,274.0003 213.1581,272.3441 Q214.4863,270.6878 216.9863,270.6878 Q217.6894,270.6878 218.33,270.8441 Q218.9863,271.0003 219.5488,271.2972 L219.5488,274.0159 Q218.9238,273.4378 218.33,273.1722 Q217.7363,272.8909 217.1113,272.8909 Q215.7675,272.8909 215.08,273.9691 Q214.3925,275.0316 214.3925,277.1253 Q214.3925,279.2191 215.08,280.2972 Q215.7675,281.3597 217.1113,281.3597 Q217.7363,281.3597 218.33,281.0941 Q218.9238,280.8128 219.5488,280.2347 L219.5488,282.9534 Z " fill="#000000"/><text fill="#000000" font-family="sans-serif" font-size="12" font-style="italic" lengthAdjust="spacing" textLength="89.2559" x="230.372" y="273.3187">&#171;requirement&#187;</text><text fill="#000000" font-family="sans-serif" font-size="14" lengthAdjust="spacing" textLength="88.8398" x="230.58" y="289.1439">ControlRisk2</text><line style="stroke:#181818;stroke-width:0.5;" x1="202.58" x2="321.4198" y1="297.4456" y2="297.4456"/><line style="stroke:#181818;stroke-width:0.5;" x1="202.58" x2="321.4198" y1="305.4456" y2="305.4456"/></g><!--class MedicalDevice--><g class="entity" data-entity="MedicalDevice" data-source-line="17" data-uid="ent0010" id="entity_MedicalDevice"><rect fill="#F1F1F1" height="113.1875" rx="2.5" ry="2.5" style="stroke:#181818;stroke-width:0.5;" width="280.6387" x="653.68" y="84"/><ellipse cx="738.9925" cy="100" fill="#ADD1B2" rx="11" ry="11" style="stroke:#181818;stroke-width:1;"/><path d="M741.9613,105.6406 Q741.3831,105.9375 740.7425,106.0781 Q740.1019,106.2344 739.3988,106.2344 Q736.8988,106.2344 735.5706,104.5938 Q734.2581,102.9375 734.2581,99.8125 Q734.2581,96.6875 735.5706,95.0313 Q736.8988,93.375 739.3988,93.375 Q740.1019,93.375 740.7425,93.5313 Q741.3988,93.6875 741.9613,93.9844 L741.9613,96.7031 Q741.3363,96.125 740.7425,95.8594 Q740.1488,95.5781 739.5238,95.5781 Q738.18,95.5781 737.4925,96.6563 Q736.805,97.7188 736.805,99.8125 Q736.805,101.9063 737.4925,102.9844 Q738.18,104.0469 739.5238,104.0469 Q740.1488,104.0469 740.7425,103.7813 Q741.3363,103.5 741.9613,102.9219 L741.9613,105.6406 Z " fill="#000000"/><text fill="#000000" font-family="sans-serif" font-size="14" lengthAdjust="spacing" textLength="101.5137" x="759.4925" y="104.8467">MedicalDevice</text><line style="stroke:#181818;stroke-width:0.5;" x1="654.68" x2="933.3187" y1="116" y2="116"/><ellipse cx="664.68" cy="129.6484" fill="none" rx="3" ry="3" style="stroke:#038048;stroke-width:1;"/><text fill="#000000" font-family="sans-serif" font-size="14" lengthAdjust="spacing" textLength="193.8809" x="673.68" y="132.9951">powerSupply: PowerModule</text><ellipse cx="664.68" cy="145.9453" fill="none" rx="3" ry="3" style="stroke:#038048;stroke-width:1;"/><text fill="#000000" font-family="sans-serif" font-size="14" lengthAdjust="spacing" textLength="129.1172" x="673.68" y="149.292">userInterface: HMI</text><ellipse cx="664.68" cy="162.2422" fill="none" rx="3" ry="3" style="stroke:#038048;stroke-width:1;"/><text fill="#000000" font-family="sans-serif" font-size="14" lengthAdjust="spacing" textLength="254.6387" x="673.68" y="165.5889">controlSystem: EmbeddedController</text><ellipse cx="664.68" cy="178.5391" fill="none" rx="3" ry="3" style="stroke:#038048;stroke-width:1;"/><text fill="#000000" font-family="sans-serif" font-size="14" lengthAdjust="spacing" textLength="220.5615" x="673.68" y="181.8857">patientInterface: SensorModule</text><line style="stroke:#181818;stroke-width:0.5;" x1="654.68" x2="933.3187" y1="189.1875" y2="189.1875"/></g><!--class Enclosure--><g class="entity" data-entity="Enclosure" data-source-line="24" data-uid="ent0011" id="entity_Enclosure"><rect fill="#F1F1F1" height="48" rx="2.5" ry="2.5" style="stroke:#181818;stroke-width:0.5;" width="100.4072" x="969.8" y="116.59"/><ellipse cx="984.8" cy="132.59" fill="#ADD1B2" rx="11" ry="11" style="stroke:#181818;stroke-width:1;"/><path d="M987.7688,138.2306 Q987.1906,138.5275 986.55,138.6681 Q985.9094,138.8244 985.2063,138.8244 Q982.7063,138.8244 981.3781,137.1837 Q980.0656,135.5275 980.0656,132.4025 Q980.0656,129.2775 981.3781,127.6212 Q982.7063,125.965 985.2063,125.965 Q985.9094,125.965 986.55,126.1212 Q987.2063,126.2775 987.7688,126.5744 L987.7688,129.2931 Q987.1438,128.715 986.55,128.4494 Q985.9563,128.1681 985.3313,128.1681 Q983.9875,128.1681 983.3,129.2462 Q982.6125,130.3087 982.6125,132.4025 Q982.6125,134.4962 983.3,135.5744 Q983.9875,136.6369 985.3313,136.6369 Q985.9563,136.6369 986.55,136.3712 Q987.1438,136.09 987.7688,135.5119 L987.7688,138.2306 Z " fill="#000000"/><text fill="#000000" font-family="sans-serif" font-size="14" lengthAdjust="spacing" textLength="68.4072" x="998.8" y="137.4367">Enclosure</text><line style="stroke:#181818;stroke-width:0.5;" x1="970.8" x2="1069.2072" y1="148.59" y2="148.59"/><line style="stroke:#181818;stroke-width:0.5;" x1="970.8" x2="1069.2072" y1="156.59" y2="156.59"/></g><!--class PowerModule--><g class="entity" data-entity="PowerModule" data-source-line="25" data-uid="ent0012" id="entity_PowerModule"><rect fill="#F1F1F1" height="48" rx="2.5" ry="2.5" style="stroke:#181818;stroke-width:0.5;" width="125.7344" x="1105.13" y="116.59"/><ellipse cx="1120.13" cy="132.59" fill="#ADD1B2" rx="11" ry="11" style="stroke:#181818;stroke-width:1;"/><path d="M1123.0988,138.2306 Q1122.5206,138.5275 1121.88,138.6681 Q1121.2394,138.8244 1120.5363,138.8244 Q1118.0363,138.8244 1116.7081,137.1837 Q1115.3956,135.5275 1115.3956,132.4025 Q1115.3956,129.2775 1116.7081,127.6212 Q1118.0363,125.965 1120.5363,125.965 Q1121.2394,125.965 1121.88,126.1212 Q1122.5363,126.2775 1123.0988,126.5744 L1123.0988,129.2931 Q1122.4738,128.715 1121.88,128.4494 Q1121.2863,128.1681 1120.6613,128.1681 Q1119.3175,128.1681 1118.63,129.2462 Q1117.9425,130.3087 1117.9425,132.4025 Q1117.9425,134.4962 1118.63,135.5744 Q1119.3175,136.6369 1120.6613,136.6369 Q1121.2863,136.6369 1121.88,136.3712 Q1122.4738,136.09 1123.0988,135.5119 L1123.0988,138.2306 Z " fill="#000000"/><text fill="#000000" font-family="sans-serif" font-size="14" lengthAdjust="spacing" textLength="93.7344" x="1134.13" y="137.4367">PowerModule</text><line style="stroke:#181818;stroke-width:0.5;" x1="1106.13" x2="1229.8644" y1="148.59" y2="148.59"/><line style="stroke:#181818;stroke-width:0.5;" x1="1106.13" x2="1229.8644" y1="156.59" y2="156.59"/></g><!--class Sensors--><g class="entity" data-entity="Sensors" data-source-line="26" data-uid="ent0013" id="entity_Sensors"><rect fill="#F1F1F1" height="48" rx="2.5" ry="2.5" style="stroke:#181818;stroke-width:0.5;" width="87.2822" x="750.36" y="261.32"/><ellipse cx="765.36" cy="277.32" fill="#ADD1B2" rx="11" ry="11" style="stroke:#181818;stroke-width:1;"/><path d="M768.3288,282.9606 Q767.7506,283.2575 767.11,283.3981 Q766.4694,283.5544 765.7663,283.5544 Q763.2663,283.5544 761.9381,281.9138 Q760.6256,280.2575 760.6256,277.1325 Q760.6256,274.0075 761.9381,272.3513 Q763.2663,270.695 765.7663,270.695 Q766.4694,270.695 767.11,270.8513 Q767.7663,271.0075 768.3288,271.3044 L768.3288,274.0231 Q767.7038,273.445 767.11,273.1794 Q766.5163,272.8981 765.8913,272.8981 Q764.5475,272.8981 763.86,273.9763 Q763.1725,275.0388 763.1725,277.1325 Q763.1725,279.2263 763.86,280.3044 Q764.5475,281.3669 765.8913,281.3669 Q766.5163,281.3669 767.11,281.1013 Q767.7038,280.82 768.3288,280.2419 L768.3288,282.9606 Z " fill="#000000"/><text fill="#000000" font-family="sans-serif" font-size="14" lengthAdjust="spacing" textLength="55.2822" x="779.36" y="282.1667">Sensors</text><line style="stroke:#181818;stroke-width:0.5;" x1="751.36" x2="836.6422" y1="293.32" y2="293.32"/><line style="stroke:#181818;stroke-width:0.5;" x1="751.36" x2="836.6422" y1="301.32" y2="301.32"/></g><!--class Hardware--><g class="entity" data-entity="Hardware" data-source-line="27" data-uid="ent0014" id="entity_Hardware"><rect fill="#F1F1F1" height="48" rx="2.5" ry="2.5" style="stroke:#181818;stroke-width:0.5;" width="100.1475" x="872.93" y="261.32"/><ellipse cx="887.93" cy="277.32" fill="#ADD1B2" rx="11" ry="11" style="stroke:#181818;stroke-width:1;"/><path d="M890.8988,282.9606 Q890.3206,283.2575 889.68,283.3981 Q889.0394,283.5544 888.3363,283.5544 Q885.8363,283.5544 884.5081,281.9138 Q883.1956,280.2575 883.1956,277.1325 Q883.1956,274.0075 884.5081,272.3513 Q885.8363,270.695 888.3363,270.695 Q889.0394,270.695 889.68,270.8513 Q890.3363,271.0075 890.8988,271.3044 L890.8988,274.0231 Q890.2738,273.445 889.68,273.1794 Q889.0863,272.8981 888.4613,272.8981 Q887.1175,272.8981 886.43,273.9763 Q885.7425,275.0388 885.7425,277.1325 Q885.7425,279.2263 886.43,280.3044 Q887.1175,281.3669 888.4613,281.3669 Q889.0863,281.3669 889.68,281.1013 Q890.2738,280.82 890.8988,280.2419 L890.8988,282.9606 Z " fill="#000000"/><text fill="#000000" font-family="sans-serif" font-size="14" lengthAdjust="spacing" textLength="68.1475" x="901.93" y="282.1667">Hardware</text><line style="stroke:#181818;stroke-width:0.5;" x1="873.93" x2="972.0775" y1="293.32" y2="293.32"/><line style="stroke:#181818;stroke-width:0.5;" x1="873.93" x2="972.0775" y1="301.32" y2="301.32"/></g><!--class Firmware--><g class="entity" data-entity="Firmware" data-source-line="28" data-uid="ent0015" id="entity_Firmware"><rect fill="#F1F1F1" height="48" rx="2.5" ry="2.5" style="stroke:#181818;stroke-width:0.5;" width="97.7344" x="1008.13" y="261.32"/><ellipse cx="1023.13" cy="277.32" fill="#ADD1B2" rx="11" ry="11" style="stroke:#181818;stroke-width:1;"/><path d="M1026.0988,282.9606 Q1025.5206,283.2575 1024.88,283.3981 Q1024.2394,283.5544 1023.5363,283.5544 Q1021.0363,283.5544 1019.7081,281.9138 Q1018.3956,280.2575 1018.3956,277.1325 Q1018.3956,274.0075 1019.7081,272.3513 Q1021.0363,270.695 1023.5363,270.695 Q1024.2394,270.695 1024.88,270.8513 Q1025.5363,271.0075 1026.0988,271.3044 L1026.0988,274.0231 Q1025.4738,273.445 1024.88,273.1794 Q1024.2863,272.8981 1023.6613,272.8981 Q1022.3175,272.8981 1021.63,273.9763 Q1020.9425,275.0388 1020.9425,277.1325 Q1020.9425,279.2263 1021.63,280.3044 Q1022.3175,281.3669 1023.6613,281.3669 Q1024.2863,281.3669 1024.88,281.1013 Q1025.4738,280.82 1026.0988,280.2419 L1026.0988,282.9606 Z " fill="#000000"/><text fill="#000000" font-family="sans-serif" font-size="14" lengthAdjust="spacing" textLength="65.7344" x="1037.13" y="282.1667">Firmware</text><line style="stroke:#181818;stroke-width:0.5;" x1="1009.13" x2="1104.8644" y1="293.32" y2="293.32"/><line style="stroke:#181818;stroke-width:0.5;" x1="1009.13" x2="1104.8644" y1="301.32" y2="301.32"/></g><!--class Software--><g class="entity" data-entity="Software" data-source-line="29" data-uid="ent0016" id="entity_Software"><rect fill="#F1F1F1" height="48" rx="2.5" ry="2.5" style="stroke:#181818;stroke-width:0.5;" width="94.2686" x="746.87" y="373.45"/><ellipse cx="761.87" cy="389.45" fill="#ADD1B2" rx="11" ry="11" style="stroke:#181818;stroke-width:1;"/><path d="M764.8388,395.0906 Q764.2606,395.3875 763.62,395.5281 Q762.9794,395.6844 762.2763,395.6844 Q759.7763,395.6844 758.4481,394.0438 Q757.1356,392.3875 757.1356,389.2625 Q757.1356,386.1375 758.4481,384.4813 Q759.7763,382.825 762.2763,382.825 Q762.9794,382.825 763.62,382.9813 Q764.2763,383.1375 764.8388,383.4344 L764.8388,386.1531 Q764.2138,385.575 763.62,385.3094 Q763.0263,385.0281 762.4013,385.0281 Q761.0575,385.0281 760.37,386.1063 Q759.6825,387.1688 759.6825,389.2625 Q759.6825,391.3563 760.37,392.4344 Q761.0575,393.4969 762.4013,393.4969 Q763.0263,393.4969 763.62,393.2313 Q764.2138,392.95 764.8388,392.3719 L764.8388,395.0906 Z " fill="#000000"/><text fill="#000000" font-family="sans-serif" font-size="14" lengthAdjust="spacing" textLength="62.2686" x="775.87" y="394.2967">Software</text><line style="stroke:#181818;stroke-width:0.5;" x1="747.87" x2="840.1386" y1="405.45" y2="405.45"/><line style="stroke:#181818;stroke-width:0.5;" x1="747.87" x2="840.1386" y1="413.45" y2="413.45"/></g><!--class HMI--><g class="entity" data-entity="HMI" data-source-line="30" data-uid="ent0017" id="entity_HMI"><rect fill="#F1F1F1" height="48" rx="2.5" ry="2.5" style="stroke:#181818;stroke-width:0.5;" width="58.7354" x="876.63" y="373.45"/><ellipse cx="891.63" cy="389.45" fill="#ADD1B2" rx="11" ry="11" style="stroke:#181818;stroke-width:1;"/><path d="M894.5988,395.0906 Q894.0206,395.3875 893.38,395.5281 Q892.7394,395.6844 892.0363,395.6844 Q889.5363,395.6844 888.2081,394.0438 Q886.8956,392.3875 886.8956,389.2625 Q886.8956,386.1375 888.2081,384.4813 Q889.5363,382.825 892.0363,382.825 Q892.7394,382.825 893.38,382.9813 Q894.0363,383.1375 894.5988,383.4344 L894.5988,386.1531 Q893.9738,385.575 893.38,385.3094 Q892.7863,385.0281 892.1613,385.0281 Q890.8175,385.0281 890.13,386.1063 Q889.4425,387.1688 889.4425,389.2625 Q889.4425,391.3563 890.13,392.4344 Q890.8175,393.4969 892.1613,393.4969 Q892.7863,393.4969 893.38,393.2313 Q893.9738,392.95 894.5988,392.3719 L894.5988,395.0906 Z " fill="#000000"/><text fill="#000000" font-family="sans-serif" font-size="14" lengthAdjust="spacing" textLength="26.7354" x="905.63" y="394.2967">HMI</text><line style="stroke:#181818;stroke-width:0.5;" x1="877.63" x2="934.3654" y1="405.45" y2="405.45"/><line style="stroke:#181818;stroke-width:0.5;" x1="877.63" x2="934.3654" y1="413.45" y2="413.45"/></g><path d="M2431.33,114.29 L2618.6708,114.29 A3.75,3.75 0 0 1 2621.1708,116.79 L2628.1708,136.5869 L2632.6708,136.5869 A2.5,2.5 0 0 1 2635.1708,139.0869 L2635.1708,164.3837 A2.5,2.5 0 0 1 2632.6708,166.8837 L2431.33,166.8837 A2.5,2.5 0 0 1 2428.83,164.3837 L2428.83,116.79 A2.5,2.5 0 0 1 2431.33,114.29" fill="#F1F1F1" style="stroke:#181818;stroke-width:0.5;"/><line style="stroke:#181818;stroke-width:0.5;" x1="2428.83" x2="2628.1708" y1="136.5869" y2="136.5869"/><text fill="#000000" font-family="sans-serif" font-size="14" font-weight="bold" lengthAdjust="spacing" textLength="186.3408" x="2432.83" y="129.2851">Functional Architecture</text><path d="M2672.37,114.29 L2841.6229,114.29 A3.75,3.75 0 0 1 2844.1229,116.79 L2851.1229,136.5869 L2855.6229,136.5869 A2.5,2.5 0 0 1 2858.1229,139.0869 L2858.1229,164.3837 A2.5,2.5 0 0 1 2855.6229,166.8837 L2672.37,166.8837 A2.5,2.5 0 0 1 2669.87,164.3837 L2669.87,116.79 A2.5,2.5 0 0 1 2672.37,114.29" fill="#F1F1F1" style="stroke:#181818;stroke-width:0.5;"/><line style="stroke:#181818;stroke-width:0.5;" x1="2669.87" x2="2851.1229" y1="136.5869" y2="136.5869"/><text fill="#000000" font-family="sans-serif" font-size="14" font-weight="bold" lengthAdjust="spacing" textLength="168.2529" x="2673.87" y="129.2851">Physical Architecture</text><!--entity HealthcareProfessionals--><g class="entity" data-entity="HealthcareProfessionals" data-source-line="44" data-uid="ent0021" id="entity_HealthcareProfessionals"><ellipse cx="1923.0008" cy="110.94" fill="#F1F1F1" rx="8" ry="8" style="stroke:#181818;stroke-width:0.5;"/><path d="M1923.0008,118.94 L1923.0008,145.94 M1910.0008,126.94 L1936.0008,126.94 M1923.0008,145.94 L1910.0008,160.94 M1923.0008,145.94 L1936.0008,160.94" fill="none" style="stroke:#181818;stroke-width:0.5;"/><text fill="#000000" font-family="sans-serif" font-size="14" lengthAdjust="spacing" textLength="168.6016" x="1838.7" y="175.4351">HealthcareProfessionals</text></g><!--entity Technician--><g class="entity" data-entity="Technician" data-source-line="45" data-uid="ent0022" id="entity_Technician"><ellipse cx="2164.9986" cy="110.94" fill="#F1F1F1" rx="8" ry="8" style="stroke:#181818;stroke-width:0.5;"/><path d="M2164.9986,118.94 L2164.9986,145.94 M2151.9986,126.94 L2177.9986,126.94 M2164.9986,145.94 L2151.9986,160.94 M2164.9986,145.94 L2177.9986,160.94" fill="none" style="stroke:#181818;stroke-width:0.5;"/><text fill="#000000" font-family="sans-serif" font-size="14" lengthAdjust="spacing" textLength="75.5371" x="2127.23" y="175.4351">Technician</text></g><!--entity Patient--><g class="entity" data-entity="Patient" data-source-line="46" data-uid="ent0023" id="entity_Patient"><ellipse cx="2261.998" cy="110.94" fill="#F1F1F1" rx="8" ry="8" style="stroke:#181818;stroke-width:0.5;"/><path d="M2261.998,118.94 L2261.998,145.94 M2248.998,126.94 L2274.998,126.94 M2261.998,145.94 L2248.998,160.94 M2261.998,145.94 L2274.998,160.94" fill="none" style="stroke:#181818;stroke-width:0.5;"/><text fill="#000000" font-family="sans-serif" font-size="14" lengthAdjust="spacing" textLength="49.376" x="2237.31" y="175.4351">Patient</text></g><!--entity LayPerson--><g class="entity" data-entity="LayPerson" data-source-line="47" data-uid="ent0024" id="entity_LayPerson"><ellipse cx="2358.004" cy="110.94" fill="#F1F1F1" rx="8" ry="8" style="stroke:#181818;stroke-width:0.5;"/><path d="M2358.004,118.94 L2358.004,145.94 M2345.004,126.94 L2371.004,126.94 M2358.004,145.94 L2345.004,160.94 M2358.004,145.94 L2371.004,160.94" fill="none" style="stroke:#181818;stroke-width:0.5;"/><text fill="#000000" font-family="sans-serif" font-size="14" lengthAdjust="spacing" textLength="72.208" x="2321.9" y="175.4351">LayPerson</text></g><!--entity UC1--><g class="entity" data-entity="UC1" data-source-line="49" data-uid="ent0025" id="entity_UC1"><ellipse cx="2332.0049" cy="285.323" fill="#F1F1F1" rx="64.9149" ry="15.383" style="stroke:#181818;stroke-width:0.5;"/><text fill="#000000" font-family="sans-serif" font-size="14" lengthAdjust="spacing" textLength="93.2422" x="2285.3838" y="289.9714">Run Self-Test</text></g><!--entity UC2--><g class="entity" data-entity="UC2" data-source-line="50" data-uid="ent0026" id="entity_UC2"><ellipse cx="2173.9986" cy="285.3236" fill="#F1F1F1" rx="57.6986" ry="14.5236" style="stroke:#181818;stroke-width:0.5;"/><text fill="#000000" font-family="sans-serif" font-size="14" lengthAdjust="spacing" textLength="77.3555" x="2135.3208" y="289.9721">Log Failure</text></g><!--entity UC3--><g class="entity" data-entity="UC3" data-source-line="57" data-uid="ent0032" id="entity_UC3"><ellipse cx="1839.0011" cy="285.3162" fill="#F1F1F1" rx="66.5311" ry="15.7062" style="stroke:#181818;stroke-width:0.5;"/><text fill="#000000" font-family="sans-serif" font-size="14" lengthAdjust="spacing" textLength="97.4941" x="1790.254" y="289.9647">Display Alarm</text></g><!--entity UC4--><g class="entity" data-entity="UC4" data-source-line="58" data-uid="ent0033" id="entity_UC4"><ellipse cx="2011.0046" cy="285.3229" fill="#F1F1F1" rx="70.2646" ry="16.4529" style="stroke:#181818;stroke-width:0.5;"/><text fill="#000000" font-family="sans-serif" font-size="14" lengthAdjust="spacing" textLength="107.0439" x="1957.4826" y="289.9714">Monitor Patient</text></g><!--entity UC5--><g class="entity" data-entity="UC5" data-source-line="64" data-uid="ent0037" id="entity_UC5"><ellipse cx="1377.9955" cy="285.3231" fill="#F1F1F1" rx="67.2155" ry="15.8431" style="stroke:#181818;stroke-width:0.5;"/><text fill="#000000" font-family="sans-serif" font-size="14" lengthAdjust="spacing" textLength="99.2715" x="1328.3598" y="289.9715">AN use case 1</text></g><!--entity UC6--><g class="entity" data-entity="UC6" data-source-line="68" data-uid="ent0040" id="entity_UC6"><ellipse cx="1649.0048" cy="285.319" fill="#F1F1F1" rx="67.2948" ry="15.859" style="stroke:#181818;stroke-width:0.5;"/><text fill="#000000" font-family="sans-serif" font-size="14" lengthAdjust="spacing" textLength="99.4766" x="1599.2665" y="289.9674">HR use case 1</text></g><!--link HealthcareProfessionals to UC1--><g class="link" data-entity-1="HealthcareProfessionals" data-entity-2="UC1" data-source-line="51" data-uid="lnk27" id="link_HealthcareProfessionals_UC1"><path codeLine="51" d="M2007.76,168.46 C2039.64,178.12 2076.33,188.72 2110,197.18 C2171.18,212.56 2191.11,200.81 2249,225.86 C2274.56,236.93 2295.6001,252.7238 2311.4801,266.1638" fill="none" id="HealthcareProfessionals-to-UC1" style="stroke:#181818;stroke-width:1;"/><polygon fill="#181818" points="2316.06,270.04,2311.7743,261.1725,2312.2434,266.8099,2306.6061,267.279,2316.06,270.04" style="stroke:#181818;stroke-width:1;"/></g><!--link Technician to UC1--><g class="link" data-entity-1="Technician" data-entity-2="UC1" data-source-line="52" data-uid="lnk28" id="link_Technician_UC1"><path codeLine="52" d="M2200.74,179.06 C2207.02,185.26 2213.6,191.51 2220,197.18 C2250.95,224.66 2284.6601,250.0676 2307.5201,266.7176" fill="none" id="Technician-to-UC1" style="stroke:#181818;stroke-width:1;"/><polygon fill="#181818" points="2312.37,270.25,2307.45,261.7181,2308.3284,267.3063,2302.7401,268.1846,2312.37,270.25" style="stroke:#181818;stroke-width:1;"/></g><!--link HealthcareProfessionals to UC2--><g class="link" data-entity-1="HealthcareProfessionals" data-entity-2="UC2" data-source-line="53" data-uid="lnk29" id="link_HealthcareProfessionals_UC2"><path codeLine="53" d="M2007.54,178.41 C2036.56,192.12 2068.82,208.58 2097,225.86 C2119.46,239.64 2138.7114,254.67 2153.8214,267.2" fill="none" id="HealthcareProfessionals-to-UC2" style="stroke:#181818;stroke-width:1;"/><polygon fill="#181818" points="2158.44,271.03,2154.0654,262.206,2154.5912,267.8384,2148.9588,268.3641,2158.44,271.03" style="stroke:#181818;stroke-width:1;"/></g><!--link Technician to UC2--><g class="link" data-entity-1="Technician" data-entity-2="UC2" data-source-line="54" data-uid="lnk30" id="link_Technician_UC2"><path codeLine="54" d="M2167.36,179.09 C2169.26,209.15 2171.4318,243.6719 2172.7518,264.5719" fill="none" id="Technician-to-UC2" style="stroke:#181818;stroke-width:1;"/><polygon fill="#181818" points="2173.13,270.56,2176.5548,261.3258,2172.8148,265.5699,2168.5707,261.83,2173.13,270.56" style="stroke:#181818;stroke-width:1;"/></g><!--link HealthcareProfessionals to UC3--><g class="link" data-entity-1="HealthcareProfessionals" data-entity-2="UC3" data-source-line="59" data-uid="lnk34" id="link_HealthcareProfessionals_UC3"><path codeLine="59" d="M1900.93,179.09 C1883.53,208.66 1863.2231,243.149 1850.7531,264.339" fill="none" id="HealthcareProfessionals-to-UC3" style="stroke:#181818;stroke-width:1;"/><polygon fill="#181818" points="1847.71,269.51,1855.722,263.7822,1850.2459,265.2008,1848.8273,259.7247,1847.71,269.51" style="stroke:#181818;stroke-width:1;"/></g><!--link HealthcareProfessionals to UC4--><g class="link" data-entity-1="HealthcareProfessionals" data-entity-2="UC4" data-source-line="60" data-uid="lnk35" id="link_HealthcareProfessionals_UC4"><path codeLine="60" d="M1946.12,179.09 C1964.15,208.33 1985.1099,242.3334 1998.2799,263.6834" fill="none" id="HealthcareProfessionals-to-UC4" style="stroke:#181818;stroke-width:1;"/><polygon fill="#181818" points="2001.43,268.79,2000.1093,259.0301,1998.805,264.5345,1993.3005,263.2302,2001.43,268.79" style="stroke:#181818;stroke-width:1;"/></g><!--link HealthcareProfessionals to UC5--><g class="link" data-entity-1="HealthcareProfessionals" data-entity-2="UC5" data-source-line="65" data-uid="lnk38" id="link_HealthcareProfessionals_UC5"><path codeLine="65" d="M1838.55,159.79 C1765.94,175.84 1658.61,200.57 1566,225.86 C1513.41,240.23 1459.0709,257.5094 1421.2809,269.9094" fill="none" id="HealthcareProfessionals-to-UC5" style="stroke:#181818;stroke-width:1;"/><polygon fill="#181818" points="1415.58,271.78,1425.3785,272.7747,1420.3308,270.2211,1422.8843,265.1734,1415.58,271.78" style="stroke:#181818;stroke-width:1;"/></g><!--link HealthcareProfessionals to UC6--><g class="link" data-entity-1="HealthcareProfessionals" data-entity-2="UC6" data-source-line="69" data-uid="lnk41" id="link_HealthcareProfessionals_UC6"><path codeLine="69" d="M1847.5,179.04 C1818.75,193.47 1785.76,210.23 1756,225.86 C1727.7,240.73 1700.8065,255.479 1679.1965,267.469" fill="none" id="HealthcareProfessionals-to-UC6" style="stroke:#181818;stroke-width:1;"/><polygon fill="#181818" points="1673.95,270.38,1683.7605,269.5112,1678.3221,267.9542,1679.8792,262.5158,1673.95,270.38" style="stroke:#181818;stroke-width:1;"/></g><!--SRC=[ZPHHRzem4CVVyobEVUd3H15qvG5LbHW5KGas1EtpT3K7M7NipESqooQ- - -maXBI5CWaaxkvlt-_-N78vD74Y5K4ctHOIXTezpQRmGokf2PPaNyd2rhc4- -rsbcLNXIIDrPKmSNiVjFqtGgLCzZEMlwNUHD7bOZgUHr62uWKt11VBd1t55_3ta5hGhrHQYaax3WK0eP0PlY5BiSGrkHnkR-r1TNTNQqRCFY5HpSckZOrH2pefdXA6ZiFKMb-OobYwazgXqSuQjP3yqlaVKVU3QDUOUcesKg22WHLRwKYur58ODIhlcT4gbE_fLNhyu0305qXCHdQP9edA-p0FmSoiKaLLEMMo3zhvkL5G7oQpXweWIghIwJwCucTQhMXLmIgo-_lHIO_Qk6D9cis-osvFDz926VR4LTn4AJFbEQwY2TfLXhLyB6tS29TcxHfXm7vZrJZLmacZZxdLrCstEH_tjAbwOe8XCXMBTHb6rTwAmZj8h5dxbMT8VF0m6aAlUzthjJhU7XJEM9WGAhSL7dRkfSHSO75TVoInrL98r7LgNdfQnrFC_MQoqP5F-Qx2i_YDJxNtJArRZyJk0f3XQTXf2lo-m1YbAaOgobrVFi43hTPTTS61g97y_5ZtsB6Gz9-3sLR6Q7CmtYe_eTx0klgRgYVsW7ulsRyESXWej745V_r6CJDQDhogD5-3vdFKw_EISClk7VpWMOStWme49MsDClWUVaCHT2gGcxEMtLHDwWuJ_EDtlcL9eIkt2rYGHYiDl-iuMNpis3lRiLTq39kz-mS0]--></g></svg>