<svg xmlns="http://www.w3.org/2000/svg" xmlns:xlink="http://www.w3.org/1999/xlink" contentStyleType="text/css" data-diagram-type="CLASS" height="335px" preserveAspectRatio="none" style="width:2463px;height:335px;background:#FFFFFF;" version="1.1" viewBox="0 0 2463 335" width="2463px" zoomAndPan="magnify"><defs/><g><!--cluster System--><g class="cluster" data-entity="System" data-source-line="6" data-uid="ent0002" id="cluster_System"><path d="M8.5,6 L67.8174,6 A3.75,3.75 0 0 1 70.3174,8.5 L77.3174,28.2969 L2453.5,28.2969 A2.5,2.5 0 0 1 2456,30.7969 L2456,326.38 A2.5,2.5 0 0 1 2453.5,328.88 L8.5,328.88 A2.5,2.5 0 0 1 6,326.38 L6,8.5 A2.5,2.5 0 0 1 8.5,6" fill="none" style="stroke:#000000;stroke-width:1.5;"/><line style="stroke:#000000;stroke-width:1.5;" x1="6" x2="77.3174" y1="28.2969" y2="28.2969"/><text fill="#000000" font-family="sans-serif" font-size="14" font-weight="bold" lengthAdjust="spacing" textLength="58.3174" x="10" y="20.9951">System</text></g><!--cluster Requirements--><g class="cluster" data-entity="Requirements" data-source-line="7" data-uid="ent0003" id="cluster_Requirements"><path d="M32.5,59.01 L144.0371,59.01 A3.75,3.75 0 0 1 146.5371,61.51 L153.5371,81.3069 L611.5,81.3069 A2.5,2.5 0 0 1 614,83.8069 L614,290.06 A2.5,2.5 0 0 1 611.5,292.56 L32.5,292.56 A2.5,2.5 0 0 1 30,290.06 L30,61.51 A2.5,2.5 0 0 1 32.5,59.01" fill="none" style="stroke:#000000;stroke-width:1.5;"/><line style="stroke:#000000;stroke-width:1.5;" x1="30" x2="153.5371" y1="81.3069" y2="81.3069"/><text fill="#000000" font-family="sans-serif" font-size="14" font-weight="bold" lengthAdjust="spacing" textLength="110.5371" x="34" y="74.0051">Requirements</text></g><!--cluster Use Cases--><g class="cluster" data-entity="Use Cases" data-source-line="27" data-uid="ent0012" id="cluster_Use Cases"><path d="M640.5,49 L721.4531,49 A3.75,3.75 0 0 1 723.9531,51.5 L730.9531,71.2969 L1777.5,71.2969 A2.5,2.5 0 0 1 1780,73.7969 L1780,302.38 A2.5,2.5 0 0 1 1777.5,304.88 L640.5,304.88 A2.5,2.5 0 0 1 638,302.38 L638,51.5 A2.5,2.5 0 0 1 640.5,49" fill="none" style="stroke:#000000;stroke-width:1.5;"/><line style="stroke:#000000;stroke-width:1.5;" x1="638" x2="730.9531" y1="71.2969" y2="71.2969"/><text fill="#000000" font-family="sans-serif" font-size="14" font-weight="bold" lengthAdjust="spacing" textLength="79.9531" x="642" y="63.9951">Use Cases</text></g><!--cluster Primary operating functions--><g class="cluster" data-entity="Primary operating functions" data-source-line="41" data-uid="ent0023" id="cluster_Primary operating functions"><path d="M1125.5,196.97 L1348.9756,196.97 A3.75,3.75 0 0 1 1351.4756,199.47 L1358.4756,219.2669 L1461.5,219.2669 A2.5,2.5 0 0 1 1464,221.7669 L1464,278.38 A2.5,2.5 0 0 1 1461.5,280.88 L1125.5,280.88 A2.5,2.5 0 0 1 1123,278.38 L1123,199.47 A2.5,2.5 0 0 1 1125.5,196.97" fill="none" style="stroke:#000000;stroke-width:1.5;"/><line style="stroke:#000000;stroke-width:1.5;" x1="1123" x2="1358.4756" y1="219.2669" y2="219.2669"/><text fill="#000000" font-family="sans-serif" font-size="14" font-weight="bold" lengthAdjust="spacing" textLength="222.4756" x="1127" y="211.9651">Primary operating functions</text></g><!--cluster Abnormal use--><g class="cluster" data-entity="Abnormal use" data-source-line="48" data-uid="ent0028" id="cluster_Abnormal use"><path d="M664.5,197.58 L774.3486,197.58 A3.75,3.75 0 0 1 776.8486,200.08 L783.8486,219.8769 L825.5,219.8769 A2.5,2.5 0 0 1 828,222.3769 L828,277.77 A2.5,2.5 0 0 1 825.5,280.27 L664.5,280.27 A2.5,2.5 0 0 1 662,277.77 L662,200.08 A2.5,2.5 0 0 1 664.5,197.58" fill="none" style="stroke:#000000;stroke-width:1.5;"/><line style="stroke:#000000;stroke-width:1.5;" x1="662" x2="783.8486" y1="219.8769" y2="219.8769"/><text fill="#000000" font-family="sans-serif" font-size="14" font-weight="bold" lengthAdjust="spacing" textLength="108.8486" x="666" y="212.5751">Abnormal use</text></g><!--cluster Hazard-related use scenarios--><g class="cluster" data-entity="Hazard-related use scenarios" data-source-line="52" data-uid="ent0031" id="cluster_Hazard-related use scenarios"><path d="M854.5,197.57 L1086.5889,197.57 A3.75,3.75 0 0 1 1089.0889,200.07 L1096.0889,219.8669 L1096.5,219.8669 A2.5,2.5 0 0 1 1099,222.3669 L1099,277.79 A2.5,2.5 0 0 1 1096.5,280.29 L854.5,280.29 A2.5,2.5 0 0 1 852,277.79 L852,200.07 A2.5,2.5 0 0 1 854.5,197.57" fill="none" style="stroke:#000000;stroke-width:1.5;"/><line style="stroke:#000000;stroke-width:1.5;" x1="852" x2="1096.0889" y1="219.8669" y2="219.8669"/><text fill="#000000" font-family="sans-serif" font-size="14" font-weight="bold" lengthAdjust="spacing" textLength="231.0889" x="856" y="212.5651">Hazard-related use scenarios</text></g><!--class BasicSafety--><g class="entity" data-entity="BasicSafety" data-source-line="8" data-uid="ent0004" id="entity_BasicSafety"><rect fill="#F1F1F1" height="56.2656" rx="2.5" ry="2.5" style="stroke:#181818;stroke-width:0.5;" width="117.2559" x="46.37" y="94.01"/><ellipse cx="61.37" cy="114.1428" fill="#ADD1B2" rx="11" ry="11" style="stroke:#181818;stroke-width:1;"/><path d="M64.3388,119.7834 Q63.7606,120.0803 63.12,120.2209 Q62.4794,120.3772 61.7763,120.3772 Q59.2763,120.3772 57.9481,118.7366 Q56.6356,117.0803 56.6356,113.9553 Q56.6356,110.8303 57.9481,109.1741 Q59.2763,107.5178 61.7763,107.5178 Q62.4794,107.5178 63.12,107.6741 Q63.7763,107.8303 64.3388,108.1272 L64.3388,110.8459 Q63.7138,110.2678 63.12,110.0022 Q62.5263,109.7209 61.9013,109.7209 Q60.5575,109.7209 59.87,110.7991 Q59.1825,111.8616 59.1825,113.9553 Q59.1825,116.0491 59.87,117.1272 Q60.5575,118.1897 61.9013,118.1897 Q62.5263,118.1897 63.12,117.9241 Q63.7138,117.6428 64.3388,117.0647 L64.3388,119.7834 Z " fill="#000000"/><text fill="#000000" font-family="sans-serif" font-size="12" font-style="italic" lengthAdjust="spacing" textLength="89.2559" x="73.37" y="110.1487">&#171;requirement&#187;</text><text fill="#000000" font-family="sans-serif" font-size="14" lengthAdjust="spacing" textLength="81.8467" x="77.0746" y="125.9739">BasicSafety</text><line style="stroke:#181818;stroke-width:0.5;" x1="47.37" x2="162.6259" y1="134.2756" y2="134.2756"/><line style="stroke:#181818;stroke-width:0.5;" x1="47.37" x2="162.6259" y1="142.2756" y2="142.2756"/></g><!--class EssentialPerformance--><g class="entity" data-entity="EssentialPerformance" data-source-line="9" data-uid="ent0005" id="entity_EssentialPerformance"><rect fill="#F1F1F1" height="56.2656" rx="2.5" ry="2.5" style="stroke:#181818;stroke-width:0.5;" width="184.2295" x="198.89" y="94.01"/><ellipse cx="213.89" cy="114.1428" fill="#ADD1B2" rx="11" ry="11" style="stroke:#181818;stroke-width:1;"/><path d="M216.8588,119.7834 Q216.2806,120.0803 215.64,120.2209 Q214.9994,120.3772 214.2963,120.3772 Q211.7963,120.3772 210.4681,118.7366 Q209.1556,117.0803 209.1556,113.9553 Q209.1556,110.8303 210.4681,109.1741 Q211.7963,107.5178 214.2963,107.5178 Q214.9994,107.5178 215.64,107.6741 Q216.2963,107.8303 216.8588,108.1272 L216.8588,110.8459 Q216.2338,110.2678 215.64,110.0022 Q215.0463,109.7209 214.4213,109.7209 Q213.0775,109.7209 212.39,110.7991 Q211.7025,111.8616 211.7025,113.9553 Q211.7025,116.0491 212.39,117.1272 Q213.0775,118.1897 214.4213,118.1897 Q215.0463,118.1897 215.64,117.9241 Q216.2338,117.6428 216.8588,117.0647 L216.8588,119.7834 Z " fill="#000000"/><text fill="#000000" font-family="sans-serif" font-size="12" font-style="italic" lengthAdjust="spacing" textLength="89.2559" x="259.3768" y="110.1487">&#171;requirement&#187;</text><text fill="#000000" font-family="sans-serif" font-size="14" lengthAdjust="spacing" textLength="152.2295" x="227.89" y="125.9739">EssentialPerformance</text><line style="stroke:#181818;stroke-width:0.5;" x1="199.89" x2="382.1195" y1="134.2756" y2="134.2756"/><line style="stroke:#181818;stroke-width:0.5;" x1="199.89" x2="382.1195" y1="142.2756" y2="142.2756"/></g><!--class LeakageCurrentLimit--><g class="entity" data-entity="LeakageCurrentLimit" data-source-line="10" data-uid="ent0006" id="entity_LeakageCurrentLimit"><rect fill="#F1F1F1" height="56.2656" rx="2.5" ry="2.5" style="stroke:#181818;stroke-width:0.5;" width="179.0205" x="418.49" y="94.01"/><ellipse cx="433.49" cy="114.1428" fill="#ADD1B2" rx="11" ry="11" style="stroke:#181818;stroke-width:1;"/><path d="M436.4588,119.7834 Q435.8806,120.0803 435.24,120.2209 Q434.5994,120.3772 433.8963,120.3772 Q431.3963,120.3772 430.0681,118.7366 Q428.7556,117.0803 428.7556,113.9553 Q428.7556,110.8303 430.0681,109.1741 Q431.3963,107.5178 433.8963,107.5178 Q434.5994,107.5178 435.24,107.6741 Q435.8963,107.8303 436.4588,108.1272 L436.4588,110.8459 Q435.8338,110.2678 435.24,110.0022 Q434.6463,109.7209 434.0213,109.7209 Q432.6775,109.7209 431.99,110.7991 Q431.3025,111.8616 431.3025,113.9553 Q431.3025,116.0491 431.99,117.1272 Q432.6775,118.1897 434.0213,118.1897 Q434.6463,118.1897 435.24,117.9241 Q435.8338,117.6428 436.4588,117.0647 L436.4588,119.7834 Z " fill="#000000"/><text fill="#000000" font-family="sans-serif" font-size="12" font-style="italic" lengthAdjust="spacing" textLength="89.2559" x="476.3723" y="110.1487">&#171;requirement&#187;</text><text fill="#000000" font-family="sans-serif" font-size="14" lengthAdjust="spacing" textLength="147.0205" x="447.49" y="125.9739">LeakageCurrentLimit</text><line style="stroke:#181818;stroke-width:0.5;" x1="419.49" x2="596.5105" y1="134.2756" y2="134.2756"/><line style="stroke:#181818;stroke-width:0.5;" x1="419.49" x2="596.5105" y1="142.2756" y2="142.2756"/></g><!--class ControlRisk1--><g class="entity" data-entity="ControlRisk1" data-source-line="11" data-uid="ent0007" id="entity_ControlRisk1"><rect fill="#F1F1F1" height="56.2656" rx="2.5" ry="2.5" style="stroke:#181818;stroke-width:0.5;" width="120.8398" x="45.58" y="220.29"/><ellipse cx="60.58" cy="240.4228" fill="#ADD1B2" rx="11" ry="11" style="stroke:#181818;stroke-width:1;"/><path d="M63.5488,246.0634 Q62.9706,246.3603 62.33,246.5009 Q61.6894,246.6572 60.9863,246.6572 Q58.4863,246.6572 57.1581,245.0166 Q55.8456,243.3603 55.8456,240.2353 Q55.8456,237.1103 57.1581,235.4541 Q58.4863,233.7978 60.9863,233.7978 Q61.6894,233.7978 62.33,233.9541 Q62.9863,234.1103 63.5488,234.4072 L63.5488,237.1259 Q62.9238,236.5478 62.33,236.2822 Q61.7363,236.0009 61.1113,236.0009 Q59.7675,236.0009 59.08,237.0791 Q58.3925,238.1416 58.3925,240.2353 Q58.3925,242.3291 59.08,243.4072 Q59.7675,244.4697 61.1113,244.4697 Q61.7363,244.4697 62.33,244.2041 Q62.9238,243.9228 63.5488,243.3447 L63.5488,246.0634 Z " fill="#000000"/><text fill="#000000" font-family="sans-serif" font-size="12" font-style="italic" lengthAdjust="spacing" textLength="89.2559" x="74.372" y="236.4287">&#171;requirement&#187;</text><text fill="#000000" font-family="sans-serif" font-size="14" lengthAdjust="spacing" textLength="88.8398" x="74.58" y="252.2539">ControlRisk1</text><line style="stroke:#181818;stroke-width:0.5;" x1="46.58" x2="165.4198" y1="260.5556" y2="260.5556"/><line style="stroke:#181818;stroke-width:0.5;" x1="46.58" x2="165.4198" y1="268.5556" y2="268.5556"/></g><!--class ControlRisk2--><g class="entity" data-entity="ControlRisk2" data-source-line="12" data-uid="ent0008" id="entity_ControlRisk2"><rect fill="#F1F1F1" height="56.2656" rx="2.5" ry="2.5" style="stroke:#181818;stroke-width:0.5;" width="120.8398" x="201.58" y="220.29"/><ellipse cx="216.58" cy="240.4228" fill="#ADD1B2" rx="11" ry="11" style="stroke:#181818;stroke-width:1;"/><path d="M219.5488,246.0634 Q218.9706,246.3603 218.33,246.5009 Q217.6894,246.6572 216.9863,246.6572 Q214.4863,246.6572 213.1581,245.0166 Q211.8456,243.3603 211.8456,240.2353 Q211.8456,237.1103 213.1581,235.4541 Q214.4863,233.7978 216.9863,233.7978 Q217.6894,233.7978 218.33,233.9541 Q218.9863,234.1103 219.5488,234.4072 L219.5488,237.1259 Q218.9238,236.5478 218.33,236.2822 Q217.7363,236.0009 217.1113,236.0009 Q215.7675,236.0009 215.08,237.0791 Q214.3925,238.1416 214.3925,240.2353 Q214.3925,242.3291 215.08,243.4072 Q215.7675,244.4697 217.1113,244.4697 Q217.7363,244.4697 218.33,244.2041 Q218.9238,243.9228 219.5488,243.3447 L219.5488,246.0634 Z " fill="#000000"/><text fill="#000000" font-family="sans-serif" font-size="12" font-style="italic" lengthAdjust="spacing" textLength="89.2559" x="230.372" y="236.4287">&#171;requirement&#187;</text><text fill="#000000" font-family="sans-serif" font-size="14" lengthAdjust="spacing" textLength="88.8398" x="230.58" y="252.2539">ControlRisk2</text><line style="stroke:#181818;stroke-width:0.5;" x1="202.58" x2="321.4198" y1="260.5556" y2="260.5556"/><line style="stroke:#181818;stroke-width:0.5;" x1="202.58" x2="321.4198" y1="268.5556" y2="268.5556"/></g><path d="M1798.94,95.85 L1959.067,95.85 A3.75,3.75 0 0 1 1961.567,98.35 L1968.567,118.1469 L1973.067,118.1469 A2.5,2.5 0 0 1 1975.567,120.6469 L1975.567,145.9438 A2.5,2.5 0 0 1 1973.067,148.4438 L1798.94,148.4438 A2.5,2.5 0 0 1 1796.44,145.9438 L1796.44,98.35 A2.5,2.5 0 0 1 1798.94,95.85" fill="#F1F1F1" style="stroke:#181818;stroke-width:0.5;"/><line style="stroke:#181818;stroke-width:0.5;" x1="1796.44" x2="1968.567" y1="118.1469" y2="118.1469"/><text fill="#000000" font-family="sans-serif" font-size="14" font-weight="bold" lengthAdjust="spacing" textLength="159.127" x="1800.44" y="110.8451">Logical Architecture</text><path d="M2013.33,95.85 L2200.6708,95.85 A3.75,3.75 0 0 1 2203.1708,98.35 L2210.1708,118.1469 L2214.6708,118.1469 A2.5,2.5 0 0 1 2217.1708,120.6469 L2217.1708,145.9438 A2.5,2.5 0 0 1 2214.6708,148.4438 L2013.33,148.4438 A2.5,2.5 0 0 1 2010.83,145.9438 L2010.83,98.35 A2.5,2.5 0 0 1 2013.33,95.85" fill="#F1F1F1" style="stroke:#181818;stroke-width:0.5;"/><line style="stroke:#181818;stroke-width:0.5;" x1="2010.83" x2="2210.1708" y1="118.1469" y2="118.1469"/><text fill="#000000" font-family="sans-serif" font-size="14" font-weight="bold" lengthAdjust="spacing" textLength="186.3408" x="2014.83" y="110.8451">Functional Architecture</text><path d="M2254.37,95.85 L2423.6229,95.85 A3.75,3.75 0 0 1 2426.1229,98.35 L2433.1229,118.1469 L2437.6229,118.1469 A2.5,2.5 0 0 1 2440.1229,120.6469 L2440.1229,145.9438 A2.5,2.5 0 0 1 2437.6229,148.4438 L2254.37,148.4438 A2.5,2.5 0 0 1 2251.87,145.9438 L2251.87,98.35 A2.5,2.5 0 0 1 2254.37,95.85" fill="#F1F1F1" style="stroke:#181818;stroke-width:0.5;"/><line style="stroke:#181818;stroke-width:0.5;" x1="2251.87" x2="2433.1229" y1="118.1469" y2="118.1469"/><text fill="#000000" font-family="sans-serif" font-size="14" font-weight="bold" lengthAdjust="spacing" textLength="168.2529" x="2255.87" y="110.8451">Physical Architecture</text><!--entity HealthcareProfessionals--><g class="entity" data-entity="HealthcareProfessionals" data-source-line="29" data-uid="ent0013" id="entity_HealthcareProfessionals"><ellipse cx="1290.0008" cy="92.5" fill="#F1F1F1" rx="8" ry="8" style="stroke:#181818;stroke-width:0.5;"/><path d="M1290.0008,100.5 L1290.0008,127.5 M1277.0008,108.5 L1303.0008,108.5 M1290.0008,127.5 L1277.0008,142.5 M1290.0008,127.5 L1303.0008,142.5" fill="none" style="stroke:#181818;stroke-width:0.5;"/><text fill="#000000" font-family="sans-serif" font-size="14" lengthAdjust="spacing" textLength="168.6016" x="1205.7" y="156.9951">HealthcareProfessionals</text></g><!--entity Technician--><g class="entity" data-entity="Technician" data-source-line="30" data-uid="ent0014" id="entity_Technician"><ellipse cx="1531.9986" cy="92.5" fill="#F1F1F1" rx="8" ry="8" style="stroke:#181818;stroke-width:0.5;"/><path d="M1531.9986,100.5 L1531.9986,127.5 M1518.9986,108.5 L1544.9986,108.5 M1531.9986,127.5 L1518.9986,142.5 M1531.9986,127.5 L1544.9986,142.5" fill="none" style="stroke:#181818;stroke-width:0.5;"/><text fill="#000000" font-family="sans-serif" font-size="14" lengthAdjust="spacing" textLength="75.5371" x="1494.23" y="156.9951">Technician</text></g><!--entity Patient--><g class="entity" data-entity="Patient" data-source-line="31" data-uid="ent0015" id="entity_Patient"><ellipse cx="1628.998" cy="92.5" fill="#F1F1F1" rx="8" ry="8" style="stroke:#181818;stroke-width:0.5;"/><path d="M1628.998,100.5 L1628.998,127.5 M1615.998,108.5 L1641.998,108.5 M1628.998,127.5 L1615.998,142.5 M1628.998,127.5 L1641.998,142.5" fill="none" style="stroke:#181818;stroke-width:0.5;"/><text fill="#000000" font-family="sans-serif" font-size="14" lengthAdjust="spacing" textLength="49.376" x="1604.31" y="156.9951">Patient</text></g><!--entity LayPerson--><g class="entity" data-entity="LayPerson" data-source-line="32" data-uid="ent0016" id="entity_LayPerson"><ellipse cx="1725.004" cy="92.5" fill="#F1F1F1" rx="8" ry="8" style="stroke:#181818;stroke-width:0.5;"/><path d="M1725.004,100.5 L1725.004,127.5 M1712.004,108.5 L1738.004,108.5 M1725.004,127.5 L1712.004,142.5 M1725.004,127.5 L1738.004,142.5" fill="none" style="stroke:#181818;stroke-width:0.5;"/><text fill="#000000" font-family="sans-serif" font-size="14" lengthAdjust="spacing" textLength="72.208" x="1688.9" y="156.9951">LayPerson</text></g><!--entity UC1--><g class="entity" data-entity="UC1" data-source-line="34" data-uid="ent0017" id="entity_UC1"><ellipse cx="1699.0049" cy="248.433" fill="#F1F1F1" rx="64.9149" ry="15.383" style="stroke:#181818;stroke-width:0.5;"/><text fill="#000000" font-family="sans-serif" font-size="14" lengthAdjust="spacing" textLength="93.2422" x="1652.3838" y="253.0814">Run Self-Test</text></g><!--entity UC2--><g class="entity" data-entity="UC2" data-source-line="35" data-uid="ent0018" id="entity_UC2"><ellipse cx="1540.9986" cy="248.4336" fill="#F1F1F1" rx="57.6986" ry="14.5236" style="stroke:#181818;stroke-width:0.5;"/><text fill="#000000" font-family="sans-serif" font-size="14" lengthAdjust="spacing" textLength="77.3555" x="1502.3208" y="253.0821">Log Failure</text></g><!--entity UC3--><g class="entity" data-entity="UC3" data-source-line="42" data-uid="ent0024" id="entity_UC3"><ellipse cx="1206.0011" cy="248.4262" fill="#F1F1F1" rx="66.5311" ry="15.7062" style="stroke:#181818;stroke-width:0.5;"/><text fill="#000000" font-family="sans-serif" font-size="14" lengthAdjust="spacing" textLength="97.4941" x="1157.254" y="253.0747">Display Alarm</text></g><!--entity UC4--><g class="entity" data-entity="UC4" data-source-line="43" data-uid="ent0025" id="entity_UC4"><ellipse cx="1378.0046" cy="248.4329" fill="#F1F1F1" rx="70.2646" ry="16.4529" style="stroke:#181818;stroke-width:0.5;"/><text fill="#000000" font-family="sans-serif" font-size="14" lengthAdjust="spacing" textLength="107.0439" x="1324.4826" y="253.0814">Monitor Patient</text></g><!--entity UC5--><g class="entity" data-entity="UC5" data-source-line="49" data-uid="ent0029" id="entity_UC5"><ellipse cx="744.9955" cy="248.4331" fill="#F1F1F1" rx="67.2155" ry="15.8431" style="stroke:#181818;stroke-width:0.5;"/><text fill="#000000" font-family="sans-serif" font-size="14" lengthAdjust="spacing" textLength="99.2715" x="695.3598" y="253.0815">AN use case 1</text></g><!--entity UC6--><g class="entity" data-entity="UC6" data-source-line="53" data-uid="ent0032" id="entity_UC6"><ellipse cx="1016.0048" cy="248.429" fill="#F1F1F1" rx="67.2948" ry="15.859" style="stroke:#181818;stroke-width:0.5;"/><text fill="#000000" font-family="sans-serif" font-size="14" lengthAdjust="spacing" textLength="99.4766" x="966.2665" y="253.0774">HR use case 1</text></g><!--link HealthcareProfessionals to UC1--><g class="link" data-entity-1="HealthcareProfessionals" data-entity-2="UC1" data-source-line="36" data-uid="lnk19" id="link_HealthcareProfessionals_UC1"><path codeLine="36" d="M1374.7,140.03 C1470.35,159.13 1613.18,187.76 1616,188.97 C1641.58,199.98 1662.6242,215.789 1678.4942,229.249" fill="none" id="HealthcareProfessionals-to-UC1" style="stroke:#181818;stroke-width:1;"/><polygon fill="#181818" points="1683.07,233.13,1678.7936,224.258,1679.2568,229.8959,1673.619,230.3591,1683.07,233.13" style="stroke:#181818;stroke-width:1;"/></g><!--link Technician to UC1--><g class="link" data-entity-1="Technician" data-entity-2="UC1" data-source-line="37" data-uid="lnk20" id="link_Technician_UC1"><path codeLine="37" d="M1569.89,151.35 C1604.35,176.99 1648.927,210.1574 1675.527,229.9574" fill="none" id="Technician-to-UC1" style="stroke:#181818;stroke-width:1;"/><polygon fill="#181818" points="1680.34,233.54,1675.5089,224.9574,1676.3292,230.5545,1670.7321,231.3748,1680.34,233.54" style="stroke:#181818;stroke-width:1;"/></g><!--link HealthcareProfessionals to UC2--><g class="link" data-entity-1="HealthcareProfessionals" data-entity-2="UC2" data-source-line="38" data-uid="lnk21" id="link_HealthcareProfessionals_UC2"><path codeLine="38" d="M1374.49,149.58 C1403.66,160.14 1436.02,173.49 1464,188.97 C1487.2,201.82 1506.5478,217.1497 1521.4478,230.0097" fill="none" id="HealthcareProfessionals-to-UC2" style="stroke:#181818;stroke-width:1;"/><polygon fill="#181818" points="1525.99,233.93,1521.7903,225.0214,1522.2049,230.6631,1516.5632,231.0777,1525.99,233.93" style="stroke:#181818;stroke-width:1;"/></g><!--link Technician to UC2--><g class="link" data-entity-1="Technician" data-entity-2="UC2" data-source-line="39" data-uid="lnk22" id="link_Technician_UC2"><path codeLine="39" d="M1534.72,160.77 C1536.5,185.35 1538.2986,210.0355 1539.5586,227.5155" fill="none" id="Technician-to-UC2" style="stroke:#181818;stroke-width:1;"/><polygon fill="#181818" points="1539.99,233.5,1543.3326,224.2357,1539.6305,228.5129,1535.3533,224.8109,1539.99,233.5" style="stroke:#181818;stroke-width:1;"/></g><!--link HealthcareProfessionals to UC3--><g class="link" data-entity-1="HealthcareProfessionals" data-entity-2="UC3" data-source-line="44" data-uid="lnk26" id="link_HealthcareProfessionals_UC3"><path codeLine="44" d="M1264.57,160.77 C1248.25,184.92 1231.31,209.9791 1219.4,227.5991" fill="none" id="HealthcareProfessionals-to-UC3" style="stroke:#181818;stroke-width:1;"/><polygon fill="#181818" points="1216.04,232.57,1224.394,227.3536,1218.84,228.4276,1217.7661,222.8736,1216.04,232.57" style="stroke:#181818;stroke-width:1;"/></g><!--link HealthcareProfessionals to UC4--><g class="link" data-entity-1="HealthcareProfessionals" data-entity-2="UC4" data-source-line="45" data-uid="lnk27" id="link_HealthcareProfessionals_UC4"><path codeLine="45" d="M1316.64,160.77 C1333.54,184.63 1351.0333,209.3429 1363.5633,227.0429" fill="none" id="HealthcareProfessionals-to-UC4" style="stroke:#181818;stroke-width:1;"/><polygon fill="#181818" points="1367.03,231.94,1365.0947,222.2832,1364.1411,227.8591,1358.5652,226.9055,1367.03,231.94" style="stroke:#181818;stroke-width:1;"/></g><!--link HealthcareProfessionals to UC5--><g class="link" data-entity-1="HealthcareProfessionals" data-entity-2="UC5" data-source-line="50" data-uid="lnk30" id="link_HealthcareProfessionals_UC5"><path codeLine="50" d="M1205.36,135.84 C1132.64,147.43 1025.24,166.22 933,188.97 C879.57,202.16 824.6691,219.9442 787.0591,232.7642" fill="none" id="HealthcareProfessionals-to-UC5" style="stroke:#181818;stroke-width:1;"/><polygon fill="#181818" points="781.38,234.7,791.1893,235.5823,786.1126,233.0868,788.6081,228.0102,781.38,234.7" style="stroke:#181818;stroke-width:1;"/></g><!--link HealthcareProfessionals to UC6--><g class="link" data-entity-1="HealthcareProfessionals" data-entity-2="UC6" data-source-line="54" data-uid="lnk33" id="link_HealthcareProfessionals_UC6"><path codeLine="54" d="M1205.46,154.11 C1178.78,164.51 1149.39,176.62 1123,188.97 C1093.67,202.7 1066.3693,217.8882 1044.9693,230.3082" fill="none" id="HealthcareProfessionals-to-UC6" style="stroke:#181818;stroke-width:1;"/><polygon fill="#181818" points="1039.78,233.32,1049.5719,232.2619,1044.1045,230.8102,1045.5562,225.3428,1039.78,233.32" style="stroke:#181818;stroke-width:1;"/></g><!--SRC=[ZPDDRzf048Rl_XKZBfm80XeELOH4tI0YEIs2SAwcou17MU-wE-jIj-A_T-quXYGbLB8bpypZdNS-jXlRB6TDi6UVGgxH-FLz0b-DPaEm8lUJ7AJUv_Antz_lzrSrKcJwIjci_spqmnkXrdR_BUDVR7PHr5qciqKKvQWUSKVGMPNYAUl0dwDhIJyATfIHyL8509H64VY4mcg5M_8btDou8pMPjCojI70mwWMvhNKP6aLduOImoXWNpeL0mXdxisniZNTMBraU1_y33Tz0XvEg4xjZXHgcJgNiIVd2KLNg2sXM6ENPcalS8Ytbycbh8OXHg6vfzyvuCXlQG25XaBcpsp1iWJmOTxSnZ8UZyRWt28MXyjR1d53xLA6ZHK19f9ObRVo1L6fOCPhMjK3FeV3MJh0CCn5hek0AMLNG4cPTcB1DUjjx8F4TG85rF3W5GgTWXgphakhmC8JFw85URz8SS5Hqudp_j-6_VgkSuJasst66hWGRMXKgD3lODcDgTlKe_JDBk0WbJ3Mwh14_Ua7SMyCdlMgO3nNpljJHPQGwvV1A_FIxgUw4hXGygMsbJBzKtr0RWqR8zSMMNJT9sWnp_8rkqtEaqJzj5uWYWuwjlCeuNxxDEBwOSLndh3Rxy1S0]--></g></svg>